P3
32 24
255
233 0 0 234 0 0 213 0 0 209 0 0 205 0 0 209 0 0 184 0 0 199 0 0 199 0 0 200 0 0 204 0 0 196 0 0 252 0 0 255 125 0 88 255 166 82 255 172 59 255 195 53 255 201 111 255 144 134 255 120 132 255 122 119 255 136 149 255 105 159 255 96 153 255 102 218 255 36 255 74 0 255 41 0 255 13 0 255 8 0 247 0 0 255 1 0 
227 0 0 216 0 0 207 0 0 200 0 0 206 0 0 227 0 0 186 0 0 200 0 0 191 0 0 188 0 0 198 0 0 204 0 0 247 0 0 255 164 0 88 255 166 79 255 176 53 255 202 42 255 213 112 255 143 132 255 123 134 255 121 139 255 116 149 255 105 137 255 117 120 255 135 221 255 33 255 68 0 255 55 0 255 16 0 255 18 0 242 0 0 255 2 0 
211 0 0 218 0 0 210 0 0 193 0 0 203 0 0 210 0 0 187 0 0 186 0 0 182 0 0 175 0 0 190 0 0 192 0 0 243 0 0 255 158 0 92 255 163 67 255 188 76 255 179 90 255 165 148 255 106 174 255 80 174 255 80 161 255 93 111 255 143 161 255 94 162 255 92 231 255 23 255 84 0 255 37 0 246 0 0 255 17 0 255 6 0 237 0 0 
230 0 0 209 0 0 204 0 0 210 0 0 200 0 0 190 0 0 174 0 0 188 0 0 170 0 0 179 0 0 172 0 0 166 0 0 229 0 0 255 186 0 82 255 173 76 255 178 58 255 196 86 255 169 118 255 136 141 255 113 152 255 103 195 255 59 151 255 104 146 255 109 155 255 100 223 255 31 255 71 0 255 36 0 255 1 0 247 0 0 237 0 0 255 13 0 
202 0 0 215 0 0 185 0 0 193 0 0 190 0 0 189 0 0 191 0 0 179 0 0 167 0 0 159 0 0 158 0 0 150 0 0 255 9 0 255 185 0 47 255 208 34 255 221 38 255 216 48 255 207 102 255 152 115 255 139 144 255 111 152 255 103 164 255 91 181 255 73 164 255 91 195 255 59 255 88 0 255 53 0 255 8 0 247 0 0 242 0 0 247 0 0 
205 0 0 202 0 0 205 0 0 194 0 0 202 0 0 198 0 0 187 0 0 181 0 0 168 0 0 162 0 0 136 0 0 150 0 0 241 0 0 255 208 0 47 255 207 20 255 234 69 255 185 64 255 190 117 255 137 131 255 124 149 255 106 162 255 93 190 255 64 189 255 65 165 255 90 208 255 46 255 68 0 255 60 0 255 3 0 255 3 0 245 0 0 255 3 0 
204 0 0 218 0 0 196 0 0 188 0 0 191 0 0 184 0 0 170 0 0 161 0 0 151 0 0 166 0 0 140 0 0 127 0 0 255 9 0 255 220 0 40 255 215 29 255 226 113 255 142 130 255 125 116 255 139 127 255 128 158 255 97 139 255 116 154 255 100 123 255 131 145 255 109 192 255 62 255 65 0 255 41 0 255 0 0 254 0 0 242 0 0 246 0 0 
208 0 0 205 0 0 202 0 0 193 0 0 188 0 0 182 0 0 162 0 0 172 0 0 153 0 0 164 0 0 138 0 0 143 0 0 255 7 0 255 242 0 45 255 209 24 255 230 139 255 115 165 255 90 159 255 96 145 255 109 141 255 113 139 255 115 114 255 141 114 255 140 151 255 104 207 255 48 255 54 0 255 50 0 251 0 0 250 0 0 247 0 0 249 0 0 
211 0 0 204 0 0 177 0 0 193 0 0 165 0 0 200 0 0 167 0 0 169 0 0 169 0 0 163 0 0 145 0 0 145 0 0 255 21 0 255 235 0 35 255 220 54 255 200 130 255 124 97 255 157 122 255 132 129 255 126 131 255 123 109 255 146 131 255 124 179 255 76 223 255 31 233 255 22 255 56 0 255 33 0 247 0 0 254 0 0 249 0 0 242 0 0 
199 0 0 193 0 0 190 0 0 183 0 0 181 0 0 184 0 0 166 0 0 159 0 0 167 0 0 154 0 0 131 0 0 142 0 0 255 6 0 255 231 0 49 255 205 60 255 195 78 255 176 83 255 172 106 255 148 112 255 143 122 255 132 116 255 139 156 255 98 184 255 70 206 255 48 244 255 10 255 52 0 255 19 0 236 0 0 235 0 0 241 0 0 246 0 0 
209 0 0 214 0 0 190 0 0 188 0 0 185 0 0 191 0 0 165 0 0 164 0 0 152 0 0 157 0 0 138 0 0 146 0 0 255 8 0 255 186 0 153 255 101 153 255 102 113 255 142 114 255 140 105 255 150 132 255 123 145 255 109 171 255 83 250 255 4 216 255 39 168 255 87 193 255 61 255 49 0 255 26 0 220 0 0 231 0 0 229 0 0 237 0 0 
191 0 0 188 0 0 197 0 0 200 0 0 191 0 0 176 0 0 158 0 0 180 0 0 157 0 0 163 0 0 142 0 0 142 0 0 248 0 0 255 176 0 195 255 59 178 255 76 149 255 106 144 255 110 149 255 106 151 255 104 168 255 87 196 255 59 255 210 0 221 255 33 200 255 55 211 255 43 255 41 0 255 14 0 218 0 0 235 0 0 243 0 0 242 0 0 
193 0 0 194 0 0 183 0 0 178 0 0 165 0 0 174 0 0 175 0 0 155 0 0 161 0 0 176 0 0 140 0 0 138 0 0 246 0 0 255 150 0 196 255 59 182 255 72 179 255 75 157 255 97 180 255 75 174 255 80 200 255 55 212 255 42 255 220 0 255 253 0 251 255 3 244 255 11 255 15 0 255 7 0 224 0 0 232 0 0 244 0 0 227 0 0 
208 0 0 199 0 0 190 0 0 190 0 0 186 0 0 178 0 0 168 0 0 178 0 0 177 0 0 168 0 0 145 0 0 160 0 0 227 0 0 255 121 0 255 207 0 250 255 4 255 248 0 235 255 20 255 224 0 253 255 2 255 219 0 255 211 0 255 151 0 255 229 0 255 241 0 255 241 0 255 28 0 255 3 0 230 0 0 223 0 0 244 0 0 240 0 0 
202 0 0 213 0 0 201 0 0 189 0 0 201 0 0 196 0 0 180 0 0 170 0 0 170 0 0 180 0 0 191 0 0 165 0 0 196 0 0 222 0 0 218 0 0 199 0 0 208 0 0 210 0 0 232 0 0 237 0 0 247 0 0 248 0 0 241 0 0 238 0 0 255 99 0 255 102 0 244 0 0 230 0 0 211 0 0 226 0 0 231 0 0 229 0 0 
216 0 0 206 0 0 202 0 0 204 0 0 199 0 0 196 0 0 191 0 0 181 0 0 181 0 0 178 0 0 177 0 0 181 0 0 207 0 0 255 3 0 255 49 0 255 16 0 255 61 0 255 28 0 255 78 0 255 73 0 255 127 0 255 69 0 255 15 0 236 0 0 255 6 0 255 14 0 249 0 0 249 0 0 219 0 0 230 0 0 237 0 0 250 0 0 
214 0 0 217 0 0 202 0 0 199 0 0 188 0 0 199 0 0 205 0 0 182 0 0 187 0 0 204 0 0 197 0 0 207 0 0 255 95 0 155 255 99 0 87 255 0 122 255 0 121 255 0 88 255 0 104 255 0 103 255 0 130 255 0 217 255 190 255 64 255 247 0 255 23 0 255 13 0 249 0 0 230 0 0 225 0 0 229 0 0 231 0 0 236 0 0 
221 0 0 217 0 0 195 0 0 204 0 0 195 0 0 200 0 0 198 0 0 200 0 0 198 0 0 198 0 0 203 0 0 212 0 0 255 61 0 124 255 130 0 153 255 0 149 255 0 146 255 0 154 255 0 167 255 0 158 255 0 182 255 0 254 255 49 255 206 105 255 150 255 111 0 255 47 0 242 0 0 237 0 0 240 0 0 235 0 0 230 0 0 255 2 0 
219 0 0 223 0 0 212 0 0 190 0 0 192 0 0 197 0 0 193 0 0 192 0 0 191 0 0 191 0 0 204 0 0 209 0 0 255 90 0 142 255 112 0 139 255 0 102 255 0 73 255 0 47 255 0 51 255 0 55 255 0 102 255 0 211 255 0 223 255 11 255 244 255 245 0 255 174 0 255 17 0 227 0 0 224 0 0 228 0 0 248 0 0 247 0 0 
218 0 0 212 0 0 207 0 0 199 0 0 200 0 0 197 0 0 194 0 0 206 0 0 190 0 0 210 0 0 185 0 0 222 0 0 255 75 0 93 255 161 0 89 255 0 50 255 0 11 255 0 10 255 0 22 255 0 13 255 0 84 255 0 239 255 0 221 255 19 255 236 220 255 34 255 172 0 255 16 0 255 0 0 222 0 0 236 0 0 239 0 0 235 0 0 
220 0 0 216 0 0 223 0 0 209 0 0 185 0 0 198 0 0 187 0 0 189 0 0 200 0 0 205 0 0 196 0 0 191 0 0 255 114 0 107 255 147 0 33 255 0 46 255 0 15 255 0 0 248 0 10 255 0 14 255 0 40 255 0 159 255 0 209 255 62 255 192 195 255 59 255 157 0 255 32 0 255 4 0 223 0 0 235 0 0 254 0 0 248 0 0 
210 0 0 210 0 0 192 0 0 208 0 0 201 0 0 202 0 0 189 0 0 194 0 0 192 0 0 192 0 0 196 0 0 216 0 0 255 94 0 33 255 221 0 15 255 0 9 255 0 0 205 0 0 225 0 0 229 0 0 231 0 0 242 0 161 255 0 206 255 130 255 125 193 255 62 255 127 0 255 17 0 255 1 0 249 0 0 235 0 0 244 0 0 255 8 0 
219 0 0 224 0 0 202 0 0 209 0 0 215 0 0 210 0 0 211 0 0 196 0 0 196 0 0 192 0 0 196 0 0 216 0 0 255 137 0 38 255 216 0 0 186 0 0 175 0 0 144 0 0 127 0 0 166 0 0 196 0 0 228 0 127 255 0 220 255 190 255 64 255 254 0 255 126 0 255 9 0 244 0 0 241 0 0 255 2 0 247 0 0 255 0 0 
224 0 0 224 0 0 196 0 0 231 0 0 205 0 0 196 0 0 196 0 0 216 0 0 202 0 0 206 0 0 210 0 0 228 0 0 255 132 0 0 244 255 0 0 202 0 0 180 0 0 177 0 0 204 0 183 255 0 163 255 35 255 220 77 255 178 170 255 84 255 230 0 255 213 0 255 110 0 255 22 0 249 0 0 245 0 0 255 9 0 253 0 0 255 17 0 
