P3
32 24
255
0 0 192 0 0 127 0 0 245 0 0 195 0 0 246 0 0 195 0 34 255 0 8 255 15 255 239 161 255 93 195 255 60 25 255 229 0 39 255 0 0 195 84 255 170 229 255 25 255 245 0 0 212 255 0 39 255 0 8 255 57 255 197 229 255 25 171 255 84 0 212 255 0 13 255 0 8 255 0 5 255 0 0 195 0 4 255 0 0 195 0 0 233 0 0 195 
0 0 195 0 0 202 0 0 195 0 0 223 0 0 195 0 0 225 0 8 255 0 20 255 25 255 229 207 255 48 229 255 25 157 255 97 0 8 255 0 7 255 25 255 229 229 255 25 229 255 25 96 255 158 0 8 255 0 26 255 93 255 161 255 227 0 161 255 93 0 249 255 0 8 255 0 40 255 0 8 255 0 5 255 0 0 195 0 20 255 0 8 255 0 20 255 
0 0 195 0 0 127 0 0 233 0 0 195 0 0 227 0 0 195 0 7 255 0 8 255 0 178 255 93 255 161 255 207 0 229 255 25 0 88 255 0 8 255 0 212 255 229 255 25 255 162 0 161 255 93 0 75 255 0 8 255 60 255 195 255 212 0 255 209 0 25 255 229 0 66 255 0 8 255 0 27 255 0 8 255 0 4 255 0 8 255 0 4 255 0 0 195 
0 0 195 0 0 157 0 0 195 0 0 233 0 0 195 0 0 234 0 8 255 0 0 249 0 76 255 36 255 218 255 212 0 255 207 0 0 76 255 0 32 255 0 212 255 166 255 88 255 212 0 255 207 0 0 76 255 0 51 255 25 255 229 255 224 0 255 212 0 35 255 220 0 8 255 0 53 255 0 8 255 0 27 255 0 8 255 0 4 255 0 8 255 0 4 255 
0 0 214 0 0 127 0 0 241 0 0 195 0 0 242 0 0 195 0 7 255 0 8 255 0 56 255 0 144 255 255 210 0 255 212 0 109 255 145 0 76 255 0 148 255 93 255 161 255 154 0 255 212 0 0 180 255 0 76 255 144 255 111 255 212 0 255 204 0 25 255 229 0 65 255 0 8 255 0 20 255 0 8 255 0 20 255 0 8 255 0 12 255 0 8 255 
0 0 127 0 0 202 0 0 195 0 0 234 0 0 195 0 0 223 0 0 195 0 0 244 0 8 255 0 117 255 255 212 0 255 191 0 161 255 93 0 227 255 0 144 255 110 255 145 255 212 0 255 143 0 0 212 255 0 90 255 161 255 93 255 151 0 229 255 25 73 255 181 0 76 255 0 59 255 0 8 255 0 26 255 0 8 255 0 64 255 0 8 255 0 35 255 
0 0 225 0 0 127 0 0 221 0 0 195 0 0 230 0 0 195 0 0 251 0 8 255 0 14 255 0 8 255 228 255 26 229 255 25 255 234 0 93 255 161 0 137 255 93 255 161 255 151 0 255 212 0 121 255 134 0 144 255 255 234 0 255 144 0 255 199 0 25 255 229 0 51 255 0 8 255 0 153 255 93 255 161 40 255 214 0 144 255 0 57 255 0 8 255 
0 0 195 0 0 196 0 0 195 0 0 229 0 0 195 0 0 237 0 0 195 0 2 255 0 8 255 0 50 255 161 255 93 255 239 0 255 212 0 232 255 23 0 144 255 45 255 209 255 212 0 255 148 0 93 255 161 0 211 255 255 212 0 255 78 0 255 212 0 41 255 214 0 8 255 0 38 255 0 212 255 181 255 73 93 255 161 0 177 255 0 76 255 0 72 255 
0 0 233 0 0 195 0 0 236 0 0 195 0 0 232 0 0 195 0 2 255 0 0 195 0 0 246 0 0 195 11 255 243 229 255 25 255 205 0 229 255 25 0 227 255 0 212 255 255 165 0 255 212 0 227 255 28 25 255 229 255 158 0 255 144 0 255 215 0 25 255 229 0 56 255 0 8 255 228 255 27 255 212 0 30 255 224 0 144 255 0 84 255 0 8 255 
0 0 195 0 0 213 0 0 195 0 0 243 0 0 195 0 0 219 0 0 195 0 0 234 0 0 195 0 0 228 0 212 255 153 255 102 255 212 0 255 197 0 0 212 255 0 249 255 255 144 0 255 144 0 229 255 25 110 255 145 255 212 0 255 119 0 229 255 25 42 255 213 0 76 255 0 68 255 255 212 0 255 189 0 0 212 255 0 150 255 0 8 255 0 42 255 
0 0 241 0 0 195 0 0 255 0 0 195 0 1 255 0 0 195 0 0 252 0 0 195 0 0 234 0 0 195 0 126 255 25 255 229 255 210 0 255 212 0 174 255 81 25 255 229 255 172 0 255 144 0 255 158 0 255 212 0 255 123 0 255 144 0 255 245 0 0 212 255 0 129 255 25 255 229 255 147 0 255 212 0 0 167 255 0 76 255 0 70 255 0 8 255 
0 0 195 0 0 207 0 0 195 0 7 255 0 0 195 0 1 255 0 0 195 0 2 255 0 0 195 0 0 246 0 76 255 0 227 255 255 212 0 255 200 0 161 255 93 183 255 71 255 144 0 255 141 0 255 144 0 255 148 0 255 144 0 255 103 0 229 255 25 21 255 234 0 212 255 189 255 66 255 144 0 251 255 3 0 76 255 0 109 255 0 76 255 0 49 255 
0 13 255 0 0 195 0 39 255 0 8 255 0 0 244 0 0 195 0 8 255 0 8 255 0 2 255 0 8 255 0 53 255 0 144 255 255 252 0 229 255 25 255 213 0 255 212 0 255 152 0 255 212 0 255 141 0 255 212 0 255 113 0 255 144 0 255 140 0 161 255 93 245 255 10 255 144 0 255 181 0 93 255 161 0 93 255 0 8 255 0 41 255 0 8 255 
0 8 255 0 54 255 0 144 255 0 157 255 0 8 255 0 38 255 0 8 255 0 14 255 0 8 255 0 20 255 0 8 255 0 119 255 229 255 25 255 223 0 255 212 0 255 165 0 255 212 0 255 158 0 255 144 0 255 141 0 255 144 0 255 109 0 255 144 0 255 104 0 255 144 0 255 111 0 229 255 25 12 255 242 0 76 255 0 68 255 0 8 255 0 49 255 
0 163 255 25 255 229 255 235 0 229 255 25 191 255 64 25 255 229 0 90 255 0 8 255 0 49 255 0 8 255 0 70 255 0 76 255 216 255 38 229 255 25 255 203 0 255 212 0 255 138 0 255 212 0 255 111 0 255 144 0 255 71 0 255 76 0 255 113 0 255 144 0 255 95 0 255 144 0 36 255 218 0 144 255 0 60 255 0 8 255 0 56 255 0 8 255 
0 144 255 0 217 255 255 212 0 255 209 0 229 255 25 237 255 17 0 212 255 0 79 255 0 8 255 0 31 255 0 8 255 0 75 255 161 255 93 255 231 0 255 212 0 255 152 0 255 144 0 255 117 0 255 144 0 255 71 0 255 76 0 255 40 0 255 144 0 255 109 0 255 144 0 255 106 0 0 212 255 0 166 255 0 8 255 0 47 255 0 8 255 0 78 255 
0 48 255 0 76 255 0 226 255 93 255 161 255 215 0 229 255 25 255 245 0 93 255 161 0 67 255 0 8 255 0 77 255 0 76 255 185 255 69 229 255 25 255 169 0 255 144 0 255 117 0 255 144 0 255 46 0 255 76 0 255 14 0 255 8 0 255 61 0 255 76 0 255 95 0 255 144 0 0 162 255 0 76 255 0 40 255 0 8 255 0 49 255 0 8 255 
0 8 255 0 48 255 0 144 255 0 213 255 255 212 0 255 185 0 229 255 25 254 255 1 0 144 255 0 55 255 0 76 255 0 122 255 161 255 93 255 207 0 255 212 0 255 141 0 255 144 0 255 61 0 255 76 0 255 20 0 255 8 0 255 4 0 255 76 0 255 61 0 255 144 0 255 135 0 0 144 255 0 111 255 0 76 255 0 48 255 0 8 255 0 42 255 
0 0 246 0 8 255 0 87 255 0 76 255 21 255 234 161 255 93 255 162 0 255 212 0 234 255 21 25 255 229 0 83 255 0 144 255 255 172 0 255 212 0 255 155 0 255 144 0 255 88 0 255 76 0 255 25 0 255 8 0 211 0 0 255 8 0 255 13 0 255 76 0 255 74 0 255 212 0 0 149 255 0 76 255 0 70 255 0 8 255 0 50 255 0 76 255 
0 0 195 0 5 255 0 8 255 0 87 255 0 144 255 21 255 234 255 212 0 255 139 0 229 255 25 255 254 0 25 255 229 76 255 178 255 144 0 255 130 0 255 144 0 255 103 0 255 76 0 255 56 0 255 8 0 249 0 0 255 8 0 236 0 0 255 8 0 255 29 0 255 76 0 255 131 0 0 144 255 0 101 255 0 8 255 0 34 255 0 8 255 0 105 255 
0 0 245 0 0 195 0 34 255 0 8 255 0 106 255 0 144 255 180 255 74 255 212 0 255 147 0 255 212 0 255 154 0 255 144 0 255 94 0 255 144 0 255 119 0 255 144 0 255 8 0 255 76 0 238 0 0 195 0 0 197 0 0 255 8 0 255 23 0 255 76 0 255 86 0 255 212 0 0 163 255 0 76 255 0 57 255 0 8 255 0 36 255 0 8 255 
0 0 195 0 0 245 0 0 195 0 62 255 0 8 255 0 114 255 25 255 229 204 255 51 255 212 0 255 195 0 255 144 0 255 104 0 255 144 0 255 132 0 255 144 0 255 94 0 255 76 0 255 19 0 255 8 0 180 0 0 195 0 0 197 0 0 255 8 0 255 28 0 255 76 0 255 129 0 0 144 255 0 127 255 0 8 255 0 81 255 0 8 255 0 60 255 
0 0 242 0 0 195 0 4 255 0 8 255 0 41 255 0 8 255 0 145 255 0 212 255 255 185 0 255 212 0 255 181 0 255 144 0 255 101 0 255 144 0 255 117 0 255 144 0 255 56 0 255 76 0 234 0 0 255 8 0 182 0 0 255 8 0 255 4 0 255 8 0 255 82 0 255 212 0 0 169 255 0 76 255 0 74 255 0 8 255 0 53 255 0 76 255 
0 0 195 0 0 251 0 8 255 0 0 253 0 8 255 0 48 255 0 76 255 0 158 255 229 255 25 255 197 0 255 212 0 255 135 0 255 144 0 255 113 0 255 144 0 255 111 0 255 144 0 255 95 0 255 76 0 255 1 0 255 8 0 213 0 0 255 8 0 255 45 0 255 144 0 255 127 0 0 212 255 0 165 255 0 8 255 0 109 255 0 76 255 0 113 255 
