P3
32 24
255
0 0 174 0 0 127 0 0 216 0 0 171 0 0 216 0 0 167 0 7 255 0 23 255 0 240 255 171 255 83 163 255 92 0 255 255 0 8 255 0 0 222 51 255 204 197 255 58 231 255 23 0 225 255 0 19 255 0 20 255 22 255 233 206 255 49 137 255 118 0 182 255 0 0 251 0 0 236 0 0 241 0 0 213 0 0 240 0 0 197 0 0 212 0 0 230 
0 0 166 0 0 174 0 0 192 0 0 197 0 0 194 0 0 192 0 0 255 0 5 255 0 243 255 175 255 79 198 255 56 124 255 131 0 0 241 0 0 230 29 255 226 194 255 60 244 255 10 61 255 193 0 8 255 0 1 255 50 255 204 247 255 7 162 255 92 0 215 255 0 45 255 0 5 255 0 7 255 0 0 241 0 0 218 0 0 242 0 0 252 0 3 255 
0 0 174 0 0 155 0 0 204 0 0 209 0 0 196 0 0 195 0 0 236 0 0 235 0 133 255 107 255 147 255 238 0 210 255 45 0 55 255 0 1 255 0 179 255 185 255 69 255 205 0 174 255 80 0 55 255 0 10 255 25 255 230 255 239 0 255 245 0 0 250 255 0 42 255 0 8 255 0 6 255 0 0 251 0 0 244 0 0 232 0 0 238 0 0 194 
0 0 197 0 0 135 0 0 210 0 0 203 0 0 203 0 0 204 0 0 228 0 0 231 0 86 255 3 255 251 255 227 0 255 240 0 0 95 255 0 0 253 0 193 255 132 255 123 255 206 0 255 239 0 0 82 255 0 31 255 39 255 215 251 255 4 255 245 0 1 255 253 0 34 255 0 18 255 0 0 255 0 6 255 0 0 222 0 0 230 0 0 245 0 0 240 
0 0 196 0 0 159 0 0 215 0 0 213 0 0 211 0 0 196 0 0 231 0 0 243 0 24 255 0 148 255 255 243 0 255 238 0 77 255 177 0 94 255 0 127 255 92 255 162 255 201 0 255 225 0 0 146 255 0 38 255 109 255 146 255 220 0 255 240 0 0 253 255 0 41 255 0 0 247 0 0 255 0 22 255 0 0 254 0 6 255 0 0 251 0 0 245 
0 0 156 0 0 171 0 0 220 0 0 209 0 0 216 0 0 191 0 0 211 0 0 226 0 16 255 0 94 255 255 231 0 255 224 0 134 255 120 0 193 255 0 118 255 75 255 180 255 200 0 255 190 0 0 206 255 0 69 255 145 255 110 255 194 0 248 255 6 39 255 216 0 46 255 0 28 255 0 0 248 0 5 255 0 34 255 0 46 255 0 19 255 0 15 255 
0 0 201 0 0 161 0 0 196 0 0 193 0 0 199 0 0 182 0 0 220 0 0 230 0 0 238 0 35 255 196 255 58 245 255 9 242 255 13 71 255 184 0 113 255 61 255 194 255 197 0 255 225 0 86 255 169 0 126 255 242 255 13 255 148 0 255 233 0 13 255 242 0 26 255 0 0 250 0 118 255 58 255 197 5 255 250 0 109 255 0 36 255 0 17 255 
0 0 192 0 0 173 0 0 204 0 0 201 0 0 178 0 0 203 0 0 224 0 0 226 0 0 230 0 18 255 166 255 89 238 255 16 255 245 0 198 255 56 0 105 255 11 255 243 255 207 0 255 189 0 99 255 155 0 177 255 255 224 0 255 122 0 255 241 0 6 255 249 0 30 255 0 4 255 0 198 255 148 255 106 61 255 193 0 146 255 0 56 255 0 56 255 
0 0 208 0 0 175 0 0 213 0 0 216 0 0 203 0 0 162 0 0 227 0 0 204 0 0 212 0 0 202 0 234 255 190 255 65 255 236 0 255 255 0 0 193 255 0 230 255 255 209 0 255 213 0 192 255 62 0 240 255 255 205 0 255 156 0 255 250 0 0 245 255 0 32 255 0 5 255 192 255 63 255 237 0 0 250 255 0 98 255 0 62 255 0 18 255 
0 0 199 0 0 184 0 0 204 0 0 212 0 0 168 0 0 191 0 0 206 0 0 199 0 0 203 0 0 199 0 181 255 120 255 135 255 237 0 255 230 0 0 228 255 0 214 255 255 198 0 255 188 0 248 255 7 77 255 178 255 214 0 255 162 0 231 255 24 9 255 246 0 48 255 0 37 255 255 232 0 255 221 0 0 190 255 0 121 255 0 24 255 0 28 255 
0 0 218 0 0 187 0 0 226 0 0 201 0 0 225 0 0 207 0 0 219 0 0 227 0 0 203 0 0 210 0 106 255 19 255 236 255 243 0 255 246 0 140 255 115 19 255 236 255 213 0 255 176 0 255 193 0 255 247 0 255 165 0 255 170 0 229 255 25 0 213 255 0 105 255 13 255 241 255 182 0 255 203 0 0 132 255 0 44 255 0 47 255 0 12 255 
0 0 207 0 0 181 0 0 217 0 0 234 0 0 219 0 0 228 0 0 222 0 0 222 0 0 217 0 0 215 0 54 255 0 194 255 255 252 0 255 231 0 185 255 69 150 255 105 255 192 0 255 182 0 255 170 0 255 190 0 255 164 0 255 144 0 233 255 22 0 243 255 0 180 255 157 255 97 255 167 0 219 255 36 0 98 255 0 79 255 0 52 255 0 34 255 
0 0 243 0 0 221 0 13 255 0 0 242 0 0 217 0 0 197 0 0 229 0 0 241 0 0 226 0 0 228 0 26 255 0 125 255 226 255 29 242 255 12 255 246 0 255 222 0 255 194 0 255 206 0 255 175 0 255 198 0 255 157 0 255 168 0 255 174 0 150 255 105 209 255 45 255 190 0 255 215 0 48 255 206 0 74 255 0 15 255 0 21 255 0 0 242 
0 20 255 0 29 255 0 142 255 0 118 255 0 14 255 0 11 255 0 26 255 0 0 249 0 0 252 0 0 246 0 32 255 0 86 255 197 255 58 255 253 0 255 234 0 255 207 0 255 201 0 255 201 0 255 161 0 255 184 0 255 155 0 255 152 0 255 160 0 255 147 0 255 155 0 255 150 0 207 255 48 0 237 255 0 38 255 0 38 255 0 12 255 0 26 255 
0 125 255 0 237 255 248 255 7 242 255 13 163 255 91 28 255 227 0 59 255 0 5 255 0 17 255 0 0 225 0 39 255 0 47 255 183 255 71 223 255 32 255 234 0 255 208 0 255 182 0 255 206 0 255 144 0 255 124 0 255 103 0 255 106 0 255 144 0 255 165 0 255 126 0 255 154 0 3 255 252 0 117 255 0 40 255 0 0 239 0 37 255 0 31 255 
0 115 255 0 178 255 255 236 0 255 239 0 201 255 54 209 255 45 0 190 255 0 58 255 0 0 254 0 0 255 0 0 254 0 43 255 144 255 110 249 255 6 255 210 0 255 192 0 255 178 0 255 158 0 255 129 0 255 109 0 255 79 0 255 78 0 255 139 0 255 148 0 255 146 0 255 148 0 0 179 255 0 138 255 0 17 255 0 19 255 0 28 255 0 52 255 
0 25 255 0 60 255 0 187 255 62 255 192 255 244 0 243 255 11 236 255 19 109 255 146 0 38 255 0 9 255 0 44 255 0 49 255 154 255 100 235 255 19 255 211 0 255 187 0 255 158 0 255 147 0 255 79 0 255 87 0 255 45 0 255 38 0 255 93 0 255 106 0 255 136 0 255 180 0 0 130 255 0 86 255 0 22 255 0 0 254 0 29 255 0 35 255 
0 26 255 0 25 255 0 140 255 0 173 255 255 240 0 255 213 0 255 248 0 225 255 30 0 122 255 0 26 255 0 48 255 0 91 255 178 255 77 255 237 0 255 198 0 255 182 0 255 135 0 255 99 0 255 75 0 255 50 0 255 53 0 255 42 0 255 78 0 255 100 0 255 143 0 255 172 0 0 136 255 0 82 255 0 41 255 0 21 255 0 36 255 0 16 255 
0 0 223 0 0 237 0 63 255 0 85 255 0 250 255 173 255 82 255 201 0 255 228 0 205 255 49 29 255 226 0 53 255 0 152 255 255 213 0 255 239 0 255 198 0 255 157 0 255 127 0 255 111 0 255 57 0 255 38 0 249 0 0 255 39 0 255 46 0 255 87 0 255 118 0 255 212 0 0 116 255 0 69 255 0 41 255 0 14 255 0 36 255 0 74 255 
0 0 226 0 0 242 0 24 255 0 65 255 0 165 255 0 238 255 255 196 0 255 177 0 253 255 2 230 255 25 6 255 249 48 255 206 255 177 0 255 168 0 255 150 0 255 139 0 255 103 0 255 92 0 255 43 0 255 31 0 255 21 0 255 20 0 255 40 0 255 68 0 255 122 0 255 167 0 0 120 255 0 78 255 0 17 255 0 9 255 0 41 255 0 69 255 
0 0 226 0 0 203 0 9 255 0 32 255 0 80 255 0 127 255 153 255 101 255 235 0 255 184 0 255 226 0 255 195 0 255 190 0 255 133 0 255 145 0 255 159 0 255 148 0 255 50 0 255 51 0 255 10 0 246 0 0 239 0 0 253 0 0 255 52 0 255 72 0 255 127 0 255 200 0 0 134 255 0 81 255 0 30 255 0 25 255 0 22 255 0 18 255 
0 0 243 0 0 223 0 0 225 0 37 255 0 41 255 0 92 255 12 255 242 178 255 77 255 202 0 255 219 0 255 169 0 255 139 0 255 151 0 255 169 0 255 164 0 255 131 0 255 88 0 255 54 0 255 4 0 227 0 0 234 0 0 241 0 0 255 33 0 255 61 0 255 118 0 255 164 0 0 140 255 0 90 255 0 35 255 0 64 255 0 28 255 0 43 255 
0 0 225 0 0 215 0 0 242 0 0 240 0 17 255 0 19 255 0 107 255 0 191 255 255 210 0 255 241 0 255 210 0 255 169 0 255 140 0 255 155 0 255 157 0 255 142 0 255 95 0 255 94 0 255 4 0 255 9 0 230 0 0 255 5 0 255 49 0 255 58 0 255 121 0 255 211 0 0 139 255 0 91 255 0 44 255 0 0 255 0 40 255 0 34 255 
0 0 216 0 0 241 0 0 249 0 0 236 0 26 255 0 30 255 0 87 255 0 124 255 211 255 44 255 216 0 255 188 0 255 169 0 255 165 0 255 144 0 255 138 0 255 143 0 255 132 0 255 125 0 255 61 0 255 30 0 252 0 0 247 0 0 255 47 0 255 80 0 255 162 0 255 171 0 0 219 255 0 133 255 0 5 255 0 79 255 0 51 255 0 84 255 
