P3
32 24
255
0 0 166 0 0 127 0 0 215 0 0 176 0 0 219 0 0 173 0 13 255 0 36 255 3 255 252 201 255 53 189 255 65 24 255 230 0 19 255 0 0 236 74 255 180 229 255 25 255 245 0 0 251 255 0 32 255 0 38 255 48 255 207 241 255 14 164 255 90 0 205 255 0 8 255 0 0 250 0 0 251 0 0 225 0 0 248 0 0 206 0 0 217 0 0 237 
0 0 155 0 0 172 0 0 189 0 0 200 0 0 195 0 0 196 0 4 255 0 13 255 4 255 250 203 255 52 227 255 27 149 255 105 0 0 250 0 0 243 52 255 202 224 255 30 255 235 0 89 255 166 0 22 255 0 15 255 74 255 181 255 229 0 191 255 64 0 235 255 0 57 255 0 18 255 0 18 255 0 0 249 0 0 223 0 0 249 0 2 255 0 6 255 
0 0 168 0 0 156 0 0 205 0 0 216 0 0 201 0 0 204 0 0 243 0 0 249 0 149 255 136 255 118 255 206 0 244 255 11 0 70 255 0 17 255 0 199 255 219 255 36 255 170 0 209 255 45 0 71 255 0 28 255 50 255 204 255 201 0 255 211 0 22 255 233 0 58 255 0 25 255 0 19 255 0 10 255 0 0 254 0 0 245 0 0 246 0 0 201 
0 0 191 0 0 132 0 0 210 0 0 208 0 0 206 0 0 211 0 0 234 0 0 241 0 99 255 26 255 229 255 194 0 255 208 0 0 110 255 0 11 255 0 214 255 160 255 94 255 172 0 255 205 0 0 100 255 0 45 255 63 255 191 255 225 0 255 212 0 23 255 231 0 47 255 0 32 255 0 11 255 0 17 255 0 0 229 0 0 239 0 0 253 0 0 245 
0 0 191 0 0 162 0 0 218 0 0 222 0 0 217 0 0 206 0 0 240 0 3 255 0 37 255 0 170 255 255 210 0 255 200 0 102 255 152 0 115 255 0 146 255 125 255 130 255 164 0 255 187 0 0 167 255 0 58 255 138 255 116 255 182 0 255 205 0 25 255 230 0 57 255 0 8 255 0 12 255 0 38 255 0 11 255 0 18 255 0 5 255 0 0 255 
0 0 149 0 0 170 0 0 222 0 0 213 0 0 221 0 0 198 0 0 217 0 0 235 0 27 255 0 111 255 255 199 0 255 190 0 162 255 93 0 216 255 0 137 255 103 255 152 255 166 0 255 152 0 0 229 255 0 86 255 174 255 81 255 159 0 255 228 0 63 255 191 0 60 255 0 41 255 0 4 255 0 15 255 0 44 255 0 56 255 0 26 255 0 22 255 
0 0 198 0 0 166 0 0 200 0 0 202 0 0 206 0 0 192 0 0 229 0 0 244 0 0 250 0 53 255 227 255 27 255 228 0 255 234 0 101 255 153 0 133 255 91 255 163 255 159 0 255 186 0 115 255 140 0 150 255 255 233 0 255 107 0 255 196 0 40 255 214 0 42 255 0 11 255 0 137 255 85 255 170 28 255 227 0 129 255 0 48 255 0 30 255 
0 0 188 0 0 173 0 0 206 0 0 206 0 0 183 0 0 211 0 0 231 0 0 237 0 0 239 0 32 255 194 255 61 255 240 0 255 213 0 230 255 24 0 122 255 36 255 218 255 172 0 255 152 0 127 255 128 0 199 255 255 189 0 255 84 0 255 208 0 31 255 224 0 44 255 0 16 255 0 217 255 176 255 79 84 255 171 0 161 255 0 68 255 0 64 255 
0 0 206 0 0 180 0 0 216 0 0 227 0 0 208 0 0 171 0 0 235 0 0 217 0 0 223 0 0 217 0 255 254 225 255 30 255 203 0 255 219 0 0 216 255 3 255 252 255 172 0 255 174 0 226 255 29 12 255 243 255 167 0 255 115 0 255 214 0 19 255 236 0 49 255 0 22 255 224 255 30 255 201 0 18 255 236 0 116 255 0 74 255 0 30 255 
0 0 194 0 0 185 0 0 207 0 0 218 0 0 172 0 0 199 0 0 213 0 0 209 0 0 212 0 0 210 0 200 255 148 255 107 255 204 0 255 195 0 0 250 255 0 237 255 255 163 0 255 152 0 255 230 0 103 255 151 255 180 0 255 125 0 255 248 0 32 255 223 0 63 255 0 51 255 255 201 0 255 190 0 0 208 255 0 135 255 0 31 255 0 34 255 
0 0 216 0 0 192 0 0 230 0 0 211 0 0 232 0 0 219 0 0 227 0 0 241 0 0 213 0 0 223 0 123 255 48 255 207 255 207 0 255 209 0 171 255 84 48 255 207 255 178 0 255 136 0 255 157 0 255 208 0 255 128 0 255 130 0 255 246 0 0 240 255 0 124 255 41 255 214 255 145 0 255 165 0 0 152 255 0 60 255 0 59 255 0 23 255 
0 0 205 0 0 183 0 0 220 0 0 240 0 0 222 0 0 236 0 0 229 0 0 233 0 0 226 0 0 227 0 67 255 0 215 255 255 219 0 255 196 0 215 255 39 180 255 74 255 156 0 255 145 0 255 135 0 255 154 0 255 128 0 255 107 0 255 246 0 10 255 245 0 199 255 186 255 69 255 133 0 247 255 7 0 112 255 0 91 255 0 60 255 0 40 255 
0 0 242 0 0 228 0 18 255 0 0 251 0 0 223 0 0 207 0 0 240 0 0 255 0 0 236 0 0 242 0 37 255 0 146 255 255 251 0 255 233 0 255 212 0 255 183 0 255 156 0 255 167 0 255 136 0 255 159 0 255 118 0 255 129 0 255 136 0 182 255 72 243 255 12 255 152 0 255 181 0 74 255 180 0 88 255 0 28 255 0 31 255 0 0 251 
0 18 255 0 34 255 0 152 255 0 129 255 0 20 255 0 19 255 0 35 255 0 2 255 0 7 255 0 2 255 0 44 255 0 102 255 226 255 28 255 220 0 255 201 0 255 173 0 255 168 0 255 165 0 255 126 0 255 148 0 255 119 0 255 116 0 255 125 0 255 112 0 255 120 0 255 115 0 235 255 20 1 255 253 0 48 255 0 47 255 0 17 255 0 28 255 
0 130 255 0 254 255 255 238 0 255 237 0 187 255 68 50 255 204 0 71 255 0 19 255 0 28 255 0 0 239 0 52 255 0 65 255 215 255 39 255 254 0 255 200 0 255 169 0 255 144 0 255 167 0 255 104 0 255 84 0 255 62 0 255 64 0 255 106 0 255 126 0 255 89 0 255 116 0 25 255 229 0 136 255 0 52 255 0 0 249 0 46 255 0 39 255 
0 115 255 0 187 255 255 211 0 255 212 0 223 255 32 234 255 21 0 205 255 0 69 255 0 5 255 0 11 255 0 8 255 0 56 255 171 255 83 255 230 0 255 177 0 255 157 0 255 145 0 255 123 0 255 93 0 255 73 0 255 42 0 255 41 0 255 105 0 255 115 0 255 112 0 255 114 0 0 194 255 0 150 255 0 24 255 0 24 255 0 32 255 0 56 255 
0 24 255 0 67 255 0 199 255 85 255 170 255 215 0 255 238 0 255 245 0 135 255 119 0 50 255 0 23 255 0 57 255 0 67 255 182 255 72 255 241 0 255 177 0 255 149 0 255 122 0 255 108 0 255 40 0 255 45 0 255 6 0 252 0 0 255 55 0 255 66 0 255 100 0 255 144 0 0 147 255 0 102 255 0 32 255 0 9 255 0 38 255 0 44 255 
0 23 255 0 26 255 0 147 255 0 184 255 255 215 0 255 187 0 255 221 0 252 255 2 0 135 255 0 38 255 0 59 255 0 105 255 205 255 50 255 206 0 255 166 0 255 148 0 255 100 0 255 62 0 255 39 0 255 13 0 255 16 0 255 5 0 255 42 0 255 66 0 255 110 0 255 142 0 0 148 255 0 89 255 0 45 255 0 25 255 0 39 255 0 14 255 
0 0 217 0 0 240 0 68 255 0 97 255 10 255 245 198 255 56 255 171 0 255 196 0 232 255 23 53 255 201 0 67 255 0 172 255 255 179 0 255 206 0 255 163 0 255 118 0 255 92 0 255 71 0 255 18 0 252 0 0 209 0 0 255 0 0 255 8 0 255 48 0 255 83 0 255 179 0 0 130 255 0 82 255 0 49 255 0 22 255 0 42 255 0 79 255 
0 0 218 0 0 241 0 24 255 0 69 255 0 174 255 0 253 255 255 169 0 255 148 0 255 231 0 255 253 0 23 255 231 68 255 186 255 146 0 255 136 0 255 118 0 255 107 0 255 70 0 255 57 0 255 6 0 251 0 0 240 0 0 240 0 0 255 5 0 255 35 0 255 93 0 255 139 0 0 129 255 0 82 255 0 17 255 0 9 255 0 41 255 0 64 255 
0 0 217 0 0 203 0 9 255 0 39 255 0 86 255 0 138 255 175 255 80 255 203 0 255 155 0 255 195 0 255 163 0 255 155 0 255 100 0 255 109 0 255 125 0 255 112 0 255 11 0 255 13 0 227 0 0 205 0 0 200 0 0 213 0 0 255 16 0 255 35 0 255 94 0 255 169 0 0 146 255 0 92 255 0 35 255 0 30 255 0 25 255 0 17 255 
0 0 228 0 0 218 0 0 219 0 36 255 0 43 255 0 98 255 25 255 230 199 255 56 255 179 0 255 192 0 255 141 0 255 110 0 255 121 0 255 139 0 255 134 0 255 100 0 255 55 0 255 20 0 224 0 0 190 0 0 198 0 0 206 0 0 255 1 0 255 32 0 255 93 0 255 139 0 0 146 255 0 91 255 0 31 255 0 61 255 0 23 255 0 35 255 
0 0 213 0 0 210 0 0 237 0 0 241 0 19 255 0 24 255 0 114 255 0 207 255 255 184 0 255 212 0 255 180 0 255 135 0 255 109 0 255 123 0 255 126 0 255 107 0 255 62 0 255 58 0 223 0 0 225 0 0 191 0 0 224 0 0 255 13 0 255 23 0 255 91 0 255 184 0 0 148 255 0 98 255 0 47 255 0 0 255 0 40 255 0 31 255 
0 0 196 0 0 228 0 0 236 0 0 225 0 18 255 0 26 255 0 86 255 0 125 255 228 255 27 255 195 0 255 166 0 255 146 0 255 144 0 255 118 0 255 113 0 255 116 0 255 107 0 255 99 0 255 33 0 255 1 0 223 0 0 219 0 0 255 21 0 255 55 0 255 142 0 255 153 0 0 221 255 0 130 255 0 0 251 0 69 255 0 39 255 0 69 255 
