P3
32 24
255
0 0 165 0 0 127 0 0 211 0 0 174 0 0 216 0 0 171 0 8 255 0 30 255 0 244 255 180 255 75 168 255 86 9 255 245 0 13 255 0 0 232 57 255 197 207 255 48 241 255 13 0 237 255 0 26 255 0 32 255 32 255 223 218 255 36 144 255 111 0 193 255 0 2 255 0 0 245 0 0 247 0 0 222 0 0 243 0 0 203 0 0 213 0 0 233 
0 0 154 0 0 171 0 0 187 0 0 197 0 0 192 0 0 193 0 0 255 0 8 255 0 245 255 181 255 73 205 255 50 130 255 125 0 0 245 0 0 238 36 255 218 202 255 52 251 255 4 71 255 183 0 16 255 0 10 255 57 255 198 255 253 0 170 255 85 0 222 255 0 50 255 0 12 255 0 13 255 0 0 244 0 0 219 0 0 244 0 0 253 0 1 255 
0 0 167 0 0 155 0 0 202 0 0 212 0 0 198 0 0 201 0 0 239 0 0 244 0 139 255 117 255 138 255 231 0 221 255 34 0 62 255 0 12 255 0 187 255 197 255 58 255 196 0 188 255 67 0 63 255 0 22 255 34 255 220 255 226 0 255 236 0 7 255 248 0 50 255 0 20 255 0 13 255 0 5 255 0 0 249 0 0 240 0 0 241 0 0 198 
0 0 188 0 0 132 0 0 207 0 0 205 0 0 203 0 0 208 0 0 230 0 0 237 0 90 255 11 255 244 255 220 0 255 233 0 0 101 255 0 6 255 0 201 255 140 255 114 255 198 0 255 230 0 0 91 255 0 38 255 46 255 208 255 249 0 255 236 0 8 255 246 0 41 255 0 26 255 0 6 255 0 11 255 0 0 225 0 0 234 0 0 248 0 0 240 
0 0 189 0 0 161 0 0 215 0 0 219 0 0 214 0 0 203 0 0 236 0 0 253 0 30 255 0 159 255 255 235 0 255 226 0 84 255 170 0 106 255 0 136 255 106 255 149 255 190 0 255 212 0 0 156 255 0 51 255 119 255 135 255 208 0 255 230 0 10 255 245 0 50 255 0 2 255 0 7 255 0 32 255 0 5 255 0 13 255 0 0 255 0 0 250 
0 0 149 0 0 169 0 0 218 0 0 210 0 0 217 0 0 196 0 0 214 0 0 231 0 21 255 0 102 255 255 224 0 255 215 0 141 255 113 0 203 255 0 127 255 85 255 170 255 192 0 255 178 0 0 216 255 0 77 255 153 255 101 255 185 0 255 252 0 47 255 208 0 53 255 0 35 255 0 0 254 0 10 255 0 38 255 0 49 255 0 20 255 0 16 255 
0 0 195 0 0 164 0 0 197 0 0 199 0 0 203 0 0 189 0 0 226 0 0 240 0 0 245 0 46 255 205 255 49 255 253 0 252 255 3 83 255 171 0 123 255 74 255 181 255 186 0 255 212 0 97 255 158 0 139 255 253 255 2 255 135 0 255 222 0 25 255 230 0 36 255 0 6 255 0 127 255 67 255 187 13 255 242 0 119 255 0 42 255 0 24 255 
0 0 186 0 0 171 0 0 203 0 0 203 0 0 180 0 0 208 0 0 227 0 0 233 0 0 235 0 26 255 173 255 82 246 255 8 255 238 0 208 255 47 0 113 255 21 255 234 255 198 0 255 179 0 108 255 147 0 187 255 255 215 0 255 113 0 255 233 0 15 255 239 0 38 255 0 11 255 0 204 255 155 255 99 66 255 188 0 150 255 0 60 255 0 57 255 
0 0 203 0 0 178 0 0 212 0 0 223 0 0 205 0 0 169 0 0 231 0 0 214 0 0 219 0 0 213 0 242 255 203 255 52 255 228 0 255 243 0 0 203 255 0 244 255 255 198 0 255 200 0 203 255 51 0 253 255 255 194 0 255 143 0 255 239 0 4 255 251 0 42 255 0 16 255 202 255 53 255 227 0 3 255 251 0 107 255 0 66 255 0 24 255 
0 0 191 0 0 183 0 0 204 0 0 215 0 0 170 0 0 196 0 0 210 0 0 206 0 0 209 0 0 206 0 188 255 128 255 126 255 229 0 255 220 0 0 236 255 0 224 255 255 189 0 255 179 0 255 254 0 85 255 169 255 205 0 255 153 0 239 255 16 16 255 238 0 55 255 0 44 255 255 226 0 255 215 0 0 195 255 0 125 255 0 25 255 0 28 255 
0 0 213 0 0 190 0 0 226 0 0 208 0 0 228 0 0 216 0 0 223 0 0 236 0 0 209 0 0 220 0 113 255 32 255 223 255 232 0 255 234 0 150 255 104 32 255 223 255 204 0 255 163 0 255 183 0 255 233 0 255 155 0 255 158 0 240 255 14 0 226 255 0 114 255 25 255 230 255 172 0 255 192 0 0 141 255 0 52 255 0 52 255 0 17 255 
0 0 202 0 0 181 0 0 216 0 0 236 0 0 218 0 0 232 0 0 225 0 0 229 0 0 222 0 0 223 0 60 255 0 202 255 255 244 0 255 222 0 193 255 61 159 255 95 255 183 0 255 172 0 255 162 0 255 181 0 255 156 0 255 135 0 240 255 14 0 251 255 0 187 255 165 255 90 255 160 0 224 255 30 0 102 255 0 82 255 0 53 255 0 34 255 
0 0 238 0 0 224 0 13 255 0 0 247 0 0 220 0 0 204 0 0 236 0 0 250 0 0 232 0 0 238 0 31 255 0 136 255 236 255 19 253 255 1 255 237 0 255 209 0 255 183 0 255 193 0 255 164 0 255 186 0 255 146 0 255 157 0 255 164 0 161 255 93 220 255 34 255 179 0 255 207 0 57 255 197 0 80 255 0 22 255 0 25 255 0 0 247 
0 12 255 0 28 255 0 142 255 0 119 255 0 14 255 0 13 255 0 29 255 0 0 253 0 2 255 0 0 253 0 37 255 0 93 255 204 255 51 255 244 0 255 226 0 255 199 0 255 195 0 255 192 0 255 153 0 255 175 0 255 147 0 255 144 0 255 153 0 255 141 0 255 148 0 255 144 0 212 255 43 0 242 255 0 41 255 0 40 255 0 12 255 0 22 255 
0 120 255 0 240 255 249 255 6 249 255 6 166 255 89 34 255 220 0 64 255 0 13 255 0 22 255 0 0 235 0 45 255 0 58 255 193 255 61 233 255 22 255 225 0 255 195 0 255 171 0 255 193 0 255 133 0 255 113 0 255 92 0 255 94 0 255 135 0 255 154 0 255 118 0 255 144 0 10 255 244 0 126 255 0 45 255 0 0 245 0 40 255 0 33 255 
0 106 255 0 176 255 255 236 0 255 237 0 200 255 54 211 255 43 0 193 255 0 61 255 0 0 255 0 6 255 0 3 255 0 49 255 151 255 104 255 254 0 255 203 0 255 184 0 255 172 0 255 150 0 255 122 0 255 103 0 255 72 0 255 71 0 255 133 0 255 143 0 255 140 0 255 142 0 0 182 255 0 139 255 0 18 255 0 19 255 0 26 255 0 49 255 
0 18 255 0 60 255 0 186 255 67 255 187 255 239 0 248 255 6 242 255 13 116 255 138 0 43 255 0 17 255 0 50 255 0 60 255 162 255 93 245 255 10 255 203 0 255 176 0 255 150 0 255 136 0 255 71 0 255 75 0 255 37 0 255 28 0 255 85 0 255 96 0 255 128 0 255 171 0 0 136 255 0 94 255 0 26 255 0 3 255 0 31 255 0 37 255 
0 17 255 0 20 255 0 137 255 0 172 255 255 240 0 255 212 0 255 246 0 229 255 26 0 125 255 0 31 255 0 52 255 0 96 255 183 255 71 255 231 0 255 192 0 255 175 0 255 129 0 255 92 0 255 70 0 255 44 0 255 47 0 255 36 0 255 73 0 255 96 0 255 138 0 255 169 0 0 137 255 0 81 255 0 39 255 0 19 255 0 32 255 0 8 255 
0 0 214 0 0 235 0 60 255 0 88 255 0 251 255 177 255 77 255 198 0 255 221 0 209 255 45 37 255 218 0 60 255 0 161 255 255 205 0 255 231 0 255 189 0 255 146 0 255 120 0 255 101 0 255 50 0 255 29 0 242 0 0 255 31 0 255 40 0 255 79 0 255 112 0 255 205 0 0 120 255 0 74 255 0 42 255 0 17 255 0 36 255 0 72 255 
0 0 215 0 0 237 0 18 255 0 62 255 0 163 255 0 239 255 255 195 0 255 175 0 255 255 0 233 255 21 8 255 247 51 255 203 255 173 0 255 164 0 255 146 0 255 135 0 255 100 0 255 87 0 255 38 0 255 28 0 255 17 0 255 16 0 255 37 0 255 66 0 255 122 0 255 166 0 0 120 255 0 74 255 0 11 255 0 3 255 0 35 255 0 57 255 
0 0 214 0 0 200 0 4 255 0 32 255 0 77 255 0 128 255 154 255 101 255 228 0 255 181 0 255 220 0 255 189 0 255 182 0 255 128 0 255 137 0 255 152 0 255 140 0 255 43 0 255 44 0 255 4 0 238 0 0 233 0 0 246 0 0 255 47 0 255 65 0 255 123 0 255 195 0 0 136 255 0 84 255 0 29 255 0 24 255 0 19 255 0 12 255 
0 0 224 0 0 215 0 0 216 0 30 255 0 36 255 0 90 255 10 255 245 177 255 77 255 204 0 255 218 0 255 168 0 255 138 0 255 149 0 255 167 0 255 162 0 255 129 0 255 85 0 255 51 0 255 1 0 224 0 0 232 0 0 240 0 0 255 33 0 255 62 0 255 121 0 255 166 0 0 136 255 0 82 255 0 25 255 0 54 255 0 17 255 0 28 255 
0 0 210 0 0 207 0 0 233 0 0 237 0 14 255 0 18 255 0 105 255 0 194 255 255 210 0 255 236 0 255 206 0 255 162 0 255 137 0 255 151 0 255 154 0 255 135 0 255 92 0 255 88 0 255 0 0 255 3 0 225 0 0 255 1 0 255 44 0 255 54 0 255 120 0 255 210 0 0 138 255 0 90 255 0 40 255 0 0 251 0 34 255 0 25 255 
0 0 193 0 0 224 0 0 232 0 0 221 0 13 255 0 20 255 0 78 255 0 116 255 205 255 49 255 221 0 255 192 0 255 173 0 255 171 0 255 146 0 255 141 0 255 144 0 255 135 0 255 128 0 255 64 0 255 33 0 255 1 0 252 0 0 255 53 0 255 86 0 255 169 0 255 179 0 0 208 255 0 120 255 0 0 246 0 62 255 0 32 255 0 61 255 
