P3
32 24
255
0 219 255 0 220 255 0 219 255 0 220 255 0 220 255 0 219 255 0 221 255 0 220 255 0 220 255 0 220 255 0 220 255 0 221 255 0 220 255 0 221 255 0 223 255 0 228 255 0 241 255 0 247 255 0 247 255 0 240 255 0 224 255 0 222 255 0 221 255 0 220 255 0 219 255 0 219 255 0 219 255 0 219 255 0 219 255 0 218 255 0 219 255 0 218 255 
0 219 255 0 218 255 0 221 255 0 220 255 0 221 255 0 219 255 0 220 255 0 221 255 0 220 255 0 220 255 0 221 255 0 221 255 0 221 255 0 220 255 0 224 255 0 226 255 0 243 255 0 250 255 0 246 255 0 240 255 0 225 255 0 221 255 0 220 255 0 220 255 0 219 255 0 219 255 0 219 255 0 219 255 0 219 255 0 218 255 0 218 255 0 218 255 
0 219 255 0 219 255 0 220 255 0 221 255 0 220 255 0 219 255 0 221 255 0 221 255 0 220 255 0 220 255 0 221 255 0 221 255 0 221 255 0 222 255 0 222 255 0 231 255 0 248 255 0 254 255 0 251 255 0 241 255 0 224 255 0 222 255 0 220 255 0 220 255 0 220 255 0 219 255 0 218 255 0 220 255 0 219 255 0 218 255 0 218 255 0 219 255 
0 220 255 0 218 255 0 221 255 0 220 255 0 221 255 0 219 255 0 221 255 0 221 255 0 221 255 0 220 255 0 222 255 0 221 255 0 222 255 0 220 255 0 226 255 0 228 255 0 251 255 2 255 253 0 250 255 0 243 255 0 224 255 0 221 255 0 220 255 0 220 255 0 221 255 0 220 255 0 220 255 0 220 255 0 219 255 0 218 255 0 218 255 0 218 255 
0 220 255 0 218 255 0 220 255 0 220 255 0 221 255 0 220 255 0 221 255 0 221 255 0 222 255 0 221 255 0 221 255 0 221 255 0 221 255 0 221 255 0 225 255 0 234 255 0 255 255 8 255 247 1 255 254 0 244 255 0 224 255 0 221 255 0 221 255 0 221 255 0 220 255 0 220 255 0 219 255 0 220 255 0 219 255 0 218 255 0 219 255 0 218 255 
0 220 255 0 220 255 0 221 255 0 220 255 0 221 255 0 220 255 0 221 255 0 221 255 0 222 255 0 221 255 0 221 255 0 221 255 0 223 255 0 222 255 0 228 255 0 231 255 5 255 250 18 255 236 0 255 255 0 246 255 0 224 255 0 221 255 0 220 255 0 221 255 0 220 255 0 219 255 0 219 255 0 219 255 0 219 255 0 218 255 0 218 255 0 219 255 
0 220 255 0 220 255 0 221 255 0 220 255 0 221 255 0 220 255 0 221 255 0 222 255 0 222 255 0 221 255 0 221 255 0 222 255 0 222 255 0 222 255 0 227 255 0 238 255 18 255 237 28 255 227 7 255 248 0 246 255 0 223 255 0 221 255 0 221 255 0 220 255 0 220 255 0 219 255 0 220 255 0 220 255 0 218 255 0 219 255 0 219 255 0 219 255 
0 220 255 0 219 255 0 220 255 0 221 255 0 221 255 0 220 255 0 221 255 0 221 255 0 221 255 0 221 255 0 222 255 0 221 255 0 223 255 0 222 255 0 231 255 0 235 255 26 255 228 33 255 222 4 255 250 0 249 255 0 224 255 0 223 255 0 221 255 0 221 255 0 220 255 0 218 255 0 220 255 0 220 255 0 220 255 0 217 255 0 218 255 0 218 255 
0 219 255 0 220 255 0 221 255 0 220 255 0 221 255 0 221 255 0 221 255 0 221 255 0 222 255 0 221 255 0 221 255 0 222 255 0 221 255 0 221 255 0 229 255 0 246 255 36 255 219 36 255 219 23 255 232 0 250 255 0 224 255 0 222 255 0 221 255 0 221 255 0 219 255 0 220 255 0 220 255 0 220 255 0 219 255 0 219 255 0 219 255 0 219 255 
0 219 255 0 220 255 0 220 255 0 220 255 0 220 255 0 220 255 0 221 255 0 222 255 0 221 255 0 221 255 0 221 255 0 222 255 0 223 255 0 222 255 0 235 255 0 243 255 37 255 218 42 255 213 21 255 234 0 254 255 0 224 255 0 222 255 0 220 255 0 221 255 0 220 255 0 219 255 0 219 255 0 221 255 0 219 255 0 220 255 0 219 255 0 219 255 
0 219 255 0 219 255 0 220 255 0 221 255 0 220 255 0 221 255 0 220 255 0 221 255 0 220 255 0 221 255 0 222 255 0 221 255 0 222 255 0 222 255 0 235 255 4 255 250 51 255 204 143 0 0 38 255 217 2 255 253 0 225 255 0 222 255 0 221 255 0 221 255 0 220 255 0 220 255 0 220 255 0 220 255 0 219 255 0 219 255 0 220 255 0 219 255 
0 220 255 0 219 255 0 220 255 0 220 255 0 220 255 0 220 255 0 221 255 0 221 255 0 220 255 0 219 255 0 221 255 0 222 255 0 222 255 0 222 255 0 243 255 1 255 254 143 0 0 86 255 168 39 255 216 8 255 246 0 225 255 0 222 255 0 221 255 0 220 255 0 220 255 0 219 255 0 221 255 0 220 255 0 220 255 0 219 255 0 220 255 0 219 255 
0 219 255 0 219 255 0 220 255 0 221 255 0 220 255 0 220 255 0 221 255 0 221 255 0 220 255 0 219 255 0 221 255 0 221 255 0 222 255 0 223 255 0 243 255 37 255 218 90 255 164 137 0 0 52 255 203 21 255 234 0 227 255 0 222 255 0 220 255 0 221 255 0 219 255 0 219 255 0 220 255 0 219 255 0 218 255 0 219 255 0 217 255 0 219 255 
0 219 255 0 220 255 0 220 255 0 221 255 0 221 255 0 220 255 0 221 255 0 221 255 0 220 255 0 219 255 0 221 255 0 221 255 0 222 255 0 222 255 4 255 251 30 255 224 137 0 0 117 255 138 55 255 200 35 255 219 0 227 255 0 222 255 0 220 255 0 220 255 0 221 255 0 219 255 0 220 255 0 221 255 0 219 255 0 218 255 0 219 255 0 220 255 
0 219 255 0 219 255 0 221 255 0 221 255 0 220 255 0 220 255 0 220 255 0 220 255 0 219 255 0 219 255 0 221 255 0 221 255 0 221 255 0 224 255 1 255 254 143 0 0 149 255 106 0 45 255 92 255 163 45 255 210 0 228 255 0 223 255 0 222 255 0 222 255 0 220 255 0 220 255 0 219 255 0 220 255 0 219 255 0 218 255 0 220 255 0 219 255 
0 219 255 0 220 255 0 220 255 0 221 255 0 221 255 0 220 255 0 220 255 0 220 255 0 220 255 0 219 255 0 221 255 0 221 255 0 222 255 0 223 255 39 255 216 53 255 201 0 0 127 177 255 77 141 0 0 57 255 198 0 228 255 0 224 255 0 222 255 0 221 255 0 221 255 0 220 255 0 220 255 0 221 255 0 219 255 0 218 255 0 220 255 0 218 255 
0 220 255 0 220 255 0 220 255 0 220 255 0 220 255 0 219 255 0 220 255 0 220 255 0 219 255 0 219 255 0 221 255 0 221 255 0 221 255 0 226 255 8 255 246 141 0 0 209 255 46 0 208 255 153 255 102 144 0 0 0 235 255 0 230 255 0 222 255 0 223 255 0 221 255 0 221 255 0 220 255 0 220 255 0 219 255 0 219 255 0 220 255 0 219 255 
0 220 255 0 219 255 0 221 255 0 221 255 0 221 255 0 220 255 0 219 255 0 221 255 0 221 255 0 220 255 0 220 255 0 221 255 0 224 255 0 222 255 42 255 212 57 255 197 127 0 0 210 255 45 135 0 0 90 255 165 7 255 248 0 246 255 0 232 255 0 226 255 0 224 255 0 222 255 0 221 255 0 221 255 0 221 255 0 219 255 0 220 255 0 219 255 
0 220 255 0 220 255 0 221 255 0 221 255 0 221 255 0 220 255 0 220 255 0 220 255 0 221 255 0 220 255 0 221 255 0 221 255 0 222 255 0 223 255 0 238 255 35 255 219 124 255 130 131 0 0 114 255 140 143 0 0 45 255 210 29 255 225 0 251 255 0 243 255 0 235 255 0 233 255 0 228 255 0 228 255 0 223 255 0 224 255 0 222 255 0 222 255 
0 220 255 0 220 255 0 221 255 0 221 255 0 221 255 0 221 255 0 221 255 0 221 255 0 220 255 0 220 255 0 221 255 0 221 255 0 222 255 0 221 255 0 239 255 0 243 255 141 0 0 122 255 132 143 0 0 79 255 176 38 255 216 31 255 223 0 249 255 0 246 255 0 236 255 0 235 255 0 230 255 0 229 255 0 227 255 0 226 255 0 224 255 0 223 255 
0 220 255 0 221 255 0 221 255 0 221 255 0 221 255 0 221 255 0 221 255 0 220 255 0 221 255 0 220 255 0 220 255 0 221 255 0 221 255 0 222 255 0 223 255 0 226 255 0 237 255 0 244 255 24 255 231 20 255 234 22 255 233 0 253 255 0 244 255 0 238 255 0 235 255 0 231 255 0 231 255 0 228 255 0 226 255 0 225 255 0 224 255 0 223 255 
0 220 255 0 218 255 0 221 255 0 220 255 0 221 255 0 219 255 0 221 255 0 221 255 0 221 255 0 220 255 0 221 255 0 221 255 0 221 255 0 220 255 0 223 255 0 223 255 0 227 255 0 231 255 0 237 255 0 246 255 0 238 255 0 242 255 0 231 255 0 233 255 0 227 255 0 227 255 0 225 255 0 226 255 0 223 255 0 223 255 0 222 255 0 221 255 
0 220 255 0 219 255 0 219 255 0 221 255 0 221 255 0 220 255 0 220 255 0 220 255 0 220 255 0 220 255 0 221 255 0 221 255 0 221 255 0 220 255 0 222 255 0 222 255 0 223 255 0 222 255 0 224 255 0 224 255 0 225 255 0 224 255 0 224 255 0 223 255 0 222 255 0 221 255 0 221 255 0 221 255 0 221 255 0 220 255 0 221 255 0 220 255 
0 220 255 0 219 255 0 220 255 0 221 255 0 221 255 0 220 255 0 221 255 0 220 255 0 220 255 0 220 255 0 220 255 0 221 255 0 220 255 0 221 255 0 222 255 0 221 255 0 222 255 0 222 255 0 222 255 0 222 255 0 222 255 0 223 255 0 223 255 0 223 255 0 221 255 0 221 255 0 220 255 0 222 255 0 221 255 0 220 255 0 220 255 0 220 255 
