P3
32 24
255
0 0 144 0 0 150 0 0 166 0 0 175 0 0 171 0 0 155 0 0 143 0 0 142 0 0 144 0 0 144 0 0 144 0 0 142 0 0 140 0 0 143 0 0 145 0 0 142 0 0 142 0 0 145 0 0 149 0 0 145 0 0 148 0 0 146 0 0 150 0 0 145 0 0 145 0 0 143 0 0 139 0 0 137 0 0 131 0 0 137 0 0 138 0 0 133 
0 0 145 0 0 152 0 0 178 0 0 190 0 0 194 0 0 174 0 0 142 0 0 146 0 0 146 0 0 138 0 0 139 0 0 146 0 0 143 0 0 140 0 0 142 0 0 147 0 0 143 0 0 146 0 0 148 0 0 153 0 0 149 0 0 147 0 0 149 0 0 147 0 0 148 0 0 142 0 0 140 0 0 142 0 0 136 0 0 139 0 0 134 0 0 135 
0 0 143 0 0 150 0 0 185 0 0 202 0 99 255 0 62 255 0 0 145 0 0 141 0 0 146 0 0 144 0 0 143 0 0 142 0 0 142 0 0 144 0 0 143 0 0 146 0 0 143 0 0 142 0 0 146 0 0 147 0 0 147 0 0 150 0 0 145 0 0 146 0 0 149 0 0 149 0 0 145 0 0 144 0 0 140 0 0 138 0 0 137 0 0 142 
0 0 147 0 0 150 0 0 173 0 0 186 0 169 255 0 166 255 0 0 144 0 0 146 0 0 143 0 0 143 0 0 146 0 0 145 0 0 145 0 0 143 0 0 142 0 0 146 0 0 148 0 0 145 0 0 151 0 0 152 0 0 151 0 0 149 0 0 147 0 0 148 0 0 147 0 0 150 0 0 149 0 0 148 0 0 148 0 0 142 0 0 136 0 0 143 
0 0 140 0 0 141 0 0 151 0 0 153 0 0 198 0 0 209 0 0 146 0 0 146 0 0 146 0 0 145 0 0 144 0 0 146 0 0 144 0 0 149 0 0 147 0 0 148 0 0 148 0 0 152 0 0 158 0 0 164 0 0 163 0 0 160 0 0 153 0 0 152 0 0 147 0 0 148 0 0 151 0 0 149 0 0 149 0 0 154 0 0 150 0 0 151 
0 0 141 0 0 139 0 0 143 0 0 154 0 0 172 0 0 170 0 0 145 0 0 145 0 0 150 0 0 150 0 0 146 0 0 150 0 0 146 0 0 146 0 0 147 0 0 148 0 0 150 0 0 149 0 0 169 0 0 183 0 0 180 0 0 170 0 0 157 0 0 155 0 0 148 0 0 149 0 0 154 0 0 152 0 0 154 0 0 151 0 0 151 0 0 152 
0 0 131 0 0 139 0 0 144 0 0 141 0 0 149 0 0 149 0 0 145 0 0 147 0 0 153 0 0 156 0 0 156 0 0 154 0 0 152 0 0 151 0 0 154 0 0 151 0 0 153 0 0 160 0 0 189 0 0 236 0 0 231 0 0 194 0 0 166 0 0 161 0 0 159 0 0 164 0 0 164 0 0 165 0 0 158 0 0 159 0 0 158 0 0 153 
0 0 139 0 0 136 0 0 142 0 0 148 0 0 154 0 0 148 0 0 145 0 0 144 0 0 156 0 0 159 0 0 156 0 0 156 0 0 152 0 0 152 0 0 160 0 0 160 0 0 157 0 0 161 0 0 194 0 0 253 0 0 242 0 0 199 0 0 164 0 0 164 0 0 167 0 0 167 0 0 180 0 0 182 0 0 171 0 0 164 0 0 152 0 0 157 
0 0 134 0 0 138 0 0 142 0 0 143 0 0 145 0 0 154 0 0 147 0 0 148 0 0 164 0 0 169 0 0 183 0 0 193 0 0 195 0 0 181 0 0 158 0 0 156 0 0 151 0 0 152 0 0 155 0 0 160 0 0 170 0 0 165 0 0 164 0 0 162 0 0 174 0 0 188 0 0 243 0 0 226 0 0 187 0 0 178 0 0 169 0 0 170 
0 0 137 0 0 139 0 0 138 0 0 141 0 0 151 0 0 145 0 0 150 0 0 151 0 0 170 0 0 178 0 0 205 0 0 233 0 0 213 0 0 185 0 0 152 0 0 155 0 0 151 0 0 153 0 0 150 0 0 152 0 0 151 0 0 149 0 0 156 0 0 159 0 0 165 0 0 173 0 21 255 0 0 255 0 0 184 0 0 177 0 0 172 0 0 173 
0 0 132 0 0 137 0 0 140 0 0 142 0 0 141 0 0 141 0 0 144 0 0 153 0 0 165 0 0 178 0 0 228 0 11 255 0 0 170 0 0 152 0 0 162 0 0 165 0 0 164 0 0 162 0 0 153 0 0 152 0 0 151 0 0 149 0 0 149 0 0 149 0 0 152 0 0 153 0 0 184 0 0 183 0 0 172 0 0 170 0 0 170 0 0 174 
0 0 135 0 0 131 0 0 136 0 0 141 0 0 139 0 0 139 0 0 142 0 0 148 0 0 166 0 0 171 0 0 236 0 5 255 0 0 157 0 0 147 0 0 172 0 0 210 0 0 198 0 0 196 0 0 167 0 0 155 0 0 151 0 0 148 0 0 151 0 0 148 0 0 149 0 0 150 0 0 156 0 0 162 0 0 165 0 0 159 0 0 162 0 0 169 
0 0 132 0 0 138 0 0 142 0 0 137 0 0 140 0 0 141 0 0 143 0 0 141 0 0 155 0 0 172 0 0 231 0 12 255 0 0 172 0 0 151 0 0 205 0 62 255 0 48 255 0 51 255 0 0 207 0 0 161 0 0 150 0 0 154 0 0 151 0 0 151 0 0 153 0 0 150 0 0 153 0 0 154 0 0 153 0 0 151 0 0 153 0 0 154 
0 0 134 0 0 130 0 0 136 0 0 142 0 0 141 0 0 140 0 0 143 0 0 146 0 0 154 0 0 162 0 0 223 0 0 249 0 0 167 0 0 152 0 0 217 0 47 255 0 109 255 0 133 255 0 0 199 0 0 163 0 0 149 0 0 151 0 0 150 0 0 153 0 0 166 0 0 158 0 0 155 0 0 155 0 0 151 0 0 152 0 0 153 0 0 160 
0 0 132 0 0 135 0 0 137 0 0 136 0 0 138 0 0 139 0 0 141 0 0 146 0 0 148 0 0 154 0 0 180 0 0 186 0 0 167 0 0 155 0 0 171 0 0 224 0 71 255 0 129 255 0 0 212 0 0 155 0 0 144 0 0 143 0 0 198 0 0 211 0 0 239 0 0 226 0 0 166 0 0 157 0 0 172 0 0 211 0 0 197 0 0 189 
0 0 134 0 0 131 0 0 139 0 0 139 0 0 140 0 0 137 0 0 146 0 0 145 0 0 146 0 0 145 0 0 164 0 0 170 0 0 162 0 0 153 0 0 168 0 0 191 0 22 255 0 59 255 0 0 179 0 0 156 0 0 146 0 0 142 0 0 247 0 0 247 0 30 255 0 25 255 0 0 172 0 0 168 0 9 255 0 69 255 0 34 255 0 0 228 
0 0 133 0 0 127 0 0 135 0 0 134 0 0 140 0 0 139 0 0 146 0 0 145 0 0 145 0 0 142 0 0 147 0 0 146 0 0 149 0 0 150 0 0 161 0 0 176 0 0 208 0 0 220 0 0 169 0 0 150 0 0 145 0 0 151 0 0 255 0 57 255 0 144 255 0 106 255 0 0 197 0 0 190 0 192 255 21 255 233 0 204 255 0 89 255 
0 0 134 0 0 132 0 0 135 0 0 140 0 0 140 0 0 137 0 0 138 0 0 143 0 0 140 0 0 142 0 0 145 0 0 146 0 0 149 0 0 147 0 0 158 0 0 173 0 0 190 0 0 192 0 0 161 0 0 157 0 0 147 0 0 146 0 0 253 0 37 255 0 141 255 0 103 255 0 0 199 0 0 200 210 255 44 230 255 25 3 255 252 0 156 255 
0 0 128 0 0 136 0 0 132 0 0 138 0 0 137 0 0 136 0 0 138 0 0 140 0 0 140 0 0 142 0 0 145 0 0 142 0 0 144 0 0 144 0 0 149 0 0 153 0 0 161 0 0 160 0 0 158 0 0 160 0 0 156 0 0 158 0 0 237 0 47 255 0 102 255 0 35 255 0 0 225 0 1 255 255 2 0 131 0 0 184 255 71 6 255 248 
0 0 135 0 0 132 0 0 132 0 0 138 0 0 141 0 0 134 0 0 138 0 0 137 0 0 139 0 0 136 0 0 141 0 0 140 0 0 144 0 0 143 0 0 149 0 0 150 0 0 153 0 0 157 0 0 153 0 0 153 0 0 162 0 0 162 0 0 231 0 35 255 0 74 255 0 30 255 0 0 241 0 27 255 168 0 0 127 0 0 133 255 121 55 255 199 
0 0 131 0 0 133 0 0 135 0 0 138 0 0 138 0 0 138 0 0 138 0 0 138 0 0 142 0 0 142 0 0 141 0 0 142 0 0 141 0 0 141 0 0 143 0 0 144 0 0 150 0 0 145 0 0 149 0 0 151 0 0 160 0 0 167 0 0 198 0 0 234 0 0 245 0 0 233 0 0 239 0 96 255 255 157 0 255 171 0 81 255 174 0 235 255 
0 0 134 0 0 131 0 0 132 0 0 139 0 0 140 0 0 140 0 0 138 0 0 141 0 0 138 0 0 139 0 0 142 0 0 139 0 0 141 0 0 141 0 0 138 0 0 147 0 0 143 0 0 144 0 0 147 0 0 148 0 0 157 0 0 158 0 0 190 0 0 198 0 0 217 0 0 218 0 0 245 0 42 255 133 255 121 163 255 91 0 226 255 0 202 255 
0 0 129 0 0 135 0 0 137 0 0 135 0 0 140 0 0 140 0 0 137 0 0 138 0 0 140 0 0 143 0 0 143 0 0 139 0 0 143 0 0 143 0 0 143 0 0 143 0 0 140 0 0 143 0 0 146 0 0 144 0 0 143 0 0 149 0 0 157 0 0 166 0 0 202 0 0 219 0 10 255 0 39 255 0 96 255 0 96 255 0 84 255 0 44 255 
0 0 135 0 0 133 0 0 137 0 0 133 0 0 140 0 0 136 0 0 141 0 0 133 0 0 141 0 0 137 0 0 142 0 0 142 0 0 142 0 0 141 0 0 141 0 0 144 0 0 143 0 0 138 0 0 144 0 0 143 0 0 145 0 0 149 0 0 150 0 0 155 0 0 173 0 0 188 0 0 233 0 0 255 0 38 255 0 33 255 0 10 255 0 4 255 
