P3
32 24
255
0 0 221 0 38 255 0 60 255 0 94 255 0 91 255 0 94 255 0 167 255 0 205 255 123 255 131 255 172 0 255 195 0 171 255 83 0 186 255 0 205 255 223 255 31 255 117 0 255 130 0 171 255 83 0 230 255 5 255 250 192 255 63 255 117 0 255 212 0 116 255 139 0 180 255 0 205 255 0 181 255 0 149 255 0 144 255 0 149 255 0 114 255 0 149 255 
0 0 183 0 28 255 0 38 255 0 90 255 0 38 255 0 91 255 0 149 255 0 201 255 116 255 139 255 198 0 255 228 0 255 213 0 0 149 255 0 175 255 171 255 83 255 130 0 255 172 0 234 255 21 0 205 255 0 221 255 171 255 83 255 123 0 255 228 0 148 255 107 0 205 255 0 178 255 0 149 255 0 168 255 0 94 255 0 130 255 0 94 255 0 144 255 
0 0 243 0 94 255 0 79 255 0 149 255 0 93 255 0 149 255 0 152 255 0 205 255 44 255 211 255 228 0 255 87 0 255 117 0 0 248 255 0 205 255 125 255 130 255 117 0 255 58 0 255 172 0 14 255 241 5 255 250 202 255 52 255 61 0 255 79 0 171 255 83 0 236 255 0 205 255 0 214 255 0 205 255 0 156 255 0 149 255 0 158 255 0 94 255 
0 0 238 0 4 255 0 38 255 0 130 255 0 94 255 0 130 255 0 149 255 0 198 255 5 255 250 176 255 79 255 117 0 255 68 0 5 255 250 0 214 255 116 255 139 255 182 0 255 61 0 255 87 0 5 255 250 3 255 251 171 255 83 255 109 0 255 117 0 191 255 63 0 205 255 0 211 255 0 149 255 0 202 255 0 94 255 0 130 255 0 94 255 0 130 255 
0 21 255 0 94 255 0 117 255 0 149 255 0 118 255 0 149 255 0 174 255 0 205 255 0 214 255 116 255 139 255 86 0 255 61 0 250 255 5 60 255 194 87 255 167 255 228 0 255 39 0 255 61 0 111 255 144 5 255 250 255 214 0 255 61 0 255 68 0 227 255 28 0 252 255 0 205 255 0 212 255 5 255 250 0 194 255 0 205 255 0 171 255 0 205 255 
0 0 238 0 50 255 0 38 255 0 141 255 0 94 255 0 130 255 0 94 255 0 194 255 0 149 255 35 255 220 255 117 0 255 48 0 255 228 0 131 255 124 60 255 194 255 224 0 255 61 0 255 39 0 116 255 139 47 255 207 255 228 0 255 48 0 255 117 0 242 255 12 0 205 255 0 221 255 0 149 255 0 222 255 0 205 255 0 206 255 0 149 255 0 171 255 
0 53 255 0 94 255 0 106 255 0 149 255 0 118 255 0 149 255 0 172 255 0 205 255 0 182 255 5 255 250 255 140 0 255 61 0 255 104 0 255 228 0 81 255 174 255 228 0 255 39 0 255 61 0 255 224 0 116 255 139 255 96 0 206 0 0 255 48 0 227 255 28 0 239 255 0 205 255 73 255 181 227 255 28 175 255 80 60 255 194 0 234 255 0 205 255 
0 0 238 0 66 255 0 38 255 0 141 255 0 94 255 0 130 255 0 94 255 0 203 255 0 149 255 0 223 255 255 228 0 255 93 0 255 117 0 255 142 0 5 255 250 227 255 27 255 61 0 255 30 0 255 228 0 138 255 116 255 61 0 238 0 0 255 117 0 211 255 44 0 205 255 0 196 255 116 255 139 255 195 0 171 255 83 41 255 213 0 149 255 0 208 255 
0 67 255 0 94 255 0 118 255 0 149 255 0 130 255 0 149 255 0 182 255 0 205 255 0 160 255 0 205 255 186 255 69 255 117 0 255 75 0 255 61 0 158 255 97 171 255 83 255 39 0 255 6 0 255 119 0 227 255 28 255 39 0 255 6 0 255 66 0 227 255 28 1 255 254 5 255 250 255 139 0 255 61 0 175 255 79 60 255 194 1 255 253 0 205 255 
0 38 255 0 93 255 0 94 255 0 163 255 0 94 255 0 130 255 0 94 255 0 171 255 0 149 255 0 150 255 116 255 139 255 194 0 255 117 0 255 75 0 116 255 139 181 255 74 255 61 0 255 39 0 255 117 0 255 231 0 255 61 0 255 12 0 255 117 0 215 255 40 0 205 255 0 236 255 255 117 0 255 69 0 60 255 194 18 255 237 0 149 255 0 195 255 
0 81 255 0 149 255 0 141 255 0 149 255 0 141 255 0 149 255 0 171 255 0 205 255 0 160 255 0 205 255 68 255 187 227 255 28 255 74 0 255 61 0 255 173 0 227 255 28 255 48 0 255 6 0 255 12 0 255 61 0 255 2 0 255 6 0 255 95 0 171 255 83 63 255 191 227 255 28 255 10 0 255 61 0 73 255 182 5 255 250 0 244 255 0 205 255 
0 38 255 0 82 255 0 94 255 0 174 255 0 94 255 0 162 255 0 94 255 0 191 255 0 149 255 0 170 255 0 205 255 153 255 102 255 117 0 255 74 0 255 172 0 255 162 0 255 61 0 255 30 0 255 61 0 255 12 0 255 61 0 255 3 0 255 117 0 190 255 64 116 255 139 255 201 0 255 61 0 255 129 0 5 255 250 0 226 255 0 149 255 0 194 255 
0 92 255 0 149 255 0 174 255 0 205 255 0 140 255 0 149 255 0 182 255 0 205 255 0 180 255 0 205 255 0 235 255 116 255 139 255 119 0 255 61 0 255 65 0 255 61 0 255 30 0 255 6 0 255 4 0 255 6 0 250 0 0 255 6 0 255 2 0 255 172 0 255 124 0 255 6 0 255 49 0 227 255 28 13 255 242 0 205 255 0 217 255 0 149 255 
0 94 255 0 166 255 5 255 250 38 255 217 0 149 255 0 184 255 0 149 255 0 212 255 0 149 255 0 189 255 0 205 255 56 255 199 255 172 0 255 101 0 255 117 0 255 39 0 255 61 0 255 48 0 255 61 0 255 21 0 255 6 0 255 12 0 255 61 0 248 0 0 255 61 0 255 29 0 255 172 0 155 255 100 0 205 255 0 190 255 0 149 255 0 155 255 
0 216 255 116 255 139 255 149 0 255 117 0 255 217 0 227 255 28 7 255 248 0 205 255 0 212 255 0 205 255 1 255 254 5 255 250 255 155 0 255 117 0 255 57 0 255 6 0 255 21 0 255 6 0 234 0 0 206 0 0 213 0 0 206 0 0 231 0 0 255 6 0 236 0 0 255 6 0 197 255 58 60 255 194 0 236 255 0 205 255 0 230 255 0 205 255 
0 149 255 41 255 213 255 172 0 255 110 0 255 228 0 255 177 0 60 255 194 9 255 245 0 149 255 0 190 255 0 149 255 1 255 254 255 228 0 255 119 0 255 117 0 255 30 0 255 61 0 255 21 0 255 6 0 225 0 0 206 0 0 213 0 0 255 61 0 255 12 0 255 61 0 255 39 0 60 255 194 51 255 203 0 149 255 0 153 255 0 149 255 0 168 255 
0 117 255 0 205 255 66 255 189 227 255 28 255 127 0 255 117 0 255 134 0 255 228 0 0 222 255 5 255 250 0 250 255 5 255 250 255 194 0 255 117 0 255 48 0 255 6 0 255 4 0 255 6 0 181 0 0 206 0 0 168 0 0 150 0 0 202 0 0 206 0 0 255 0 0 255 61 0 77 255 178 5 255 250 0 202 255 0 205 255 0 219 255 0 205 255 
0 38 255 0 142 255 0 205 255 66 255 189 255 172 0 255 110 0 255 172 0 255 132 0 5 255 250 0 202 255 0 205 255 42 255 213 255 228 0 255 102 0 255 117 0 255 21 0 255 6 0 231 0 0 255 6 0 170 0 0 206 0 0 195 0 0 255 6 0 230 0 0 255 61 0 255 79 0 5 255 250 0 234 255 0 149 255 0 130 255 0 94 255 0 116 255 
0 37 255 0 149 255 0 201 255 5 255 250 121 255 134 255 228 0 255 77 0 255 61 0 255 172 0 227 255 28 0 250 255 116 255 139 255 76 0 255 61 0 255 39 0 255 6 0 249 0 0 206 0 0 168 0 0 150 0 0 127 0 0 150 0 0 164 0 0 206 0 0 245 0 0 255 61 0 55 255 200 5 255 250 0 205 255 0 149 255 0 196 255 0 205 255 
0 0 238 0 65 255 0 94 255 0 201 255 5 255 250 99 255 156 255 117 0 255 49 0 255 172 0 255 175 0 116 255 139 210 255 45 255 61 0 255 57 0 255 61 0 255 2 0 255 6 0 248 0 0 206 0 0 177 0 0 206 0 0 192 0 0 206 0 0 218 0 0 255 61 0 255 89 0 0 205 255 0 212 255 0 94 255 0 77 255 0 94 255 0 130 255 
0 21 255 0 94 255 0 130 255 0 149 255 0 199 255 5 255 250 255 234 0 255 117 0 255 79 0 255 117 0 255 67 0 255 61 0 255 20 0 255 6 0 255 21 0 255 6 0 193 0 0 206 0 0 139 0 0 150 0 0 134 0 0 150 0 0 188 0 0 206 0 0 255 18 0 255 117 0 41 255 213 0 205 255 0 169 255 0 149 255 0 158 255 0 94 255 
0 0 238 0 35 255 0 0 238 0 142 255 0 94 255 0 189 255 60 255 194 255 210 0 255 172 0 255 137 0 255 117 0 255 29 0 255 61 0 255 77 0 255 117 0 255 20 0 255 6 0 230 0 0 206 0 0 148 0 0 206 0 0 190 0 0 255 6 0 234 0 0 255 61 0 255 113 0 0 205 255 0 192 255 0 94 255 0 103 255 0 38 255 0 72 255 
0 0 236 0 38 255 0 76 255 0 94 255 0 117 255 0 149 255 0 245 255 60 255 194 255 122 0 255 117 0 255 88 0 255 61 0 255 39 0 255 61 0 255 29 0 255 6 0 246 0 0 255 6 0 148 0 0 150 0 0 145 0 0 150 0 0 203 0 0 206 0 0 255 39 0 255 117 0 36 255 219 0 205 255 0 144 255 0 94 255 0 144 255 0 94 255 
0 0 127 0 0 225 0 0 238 0 37 255 0 38 255 0 80 255 0 94 255 0 222 255 227 255 28 255 185 0 255 172 0 255 98 0 255 117 0 255 99 0 255 117 0 255 68 0 255 117 0 255 87 0 255 61 0 235 0 0 255 6 0 243 0 0 255 61 0 255 49 0 255 172 0 255 185 0 0 205 255 0 168 255 0 0 238 0 43 255 0 0 238 0 39 255 
