P3
32 24
255
0 0 166 0 0 127 0 0 214 0 0 176 0 0 219 0 0 173 0 13 255 0 36 255 2 255 252 200 255 55 188 255 66 23 255 231 0 19 255 0 0 236 73 255 181 228 255 27 255 247 0 0 250 255 0 32 255 0 38 255 47 255 208 240 255 15 163 255 92 0 205 255 0 7 255 0 0 250 0 0 251 0 0 225 0 0 248 0 0 206 0 0 217 0 0 237 
0 0 155 0 0 172 0 0 189 0 0 200 0 0 195 0 0 196 0 4 255 0 13 255 3 255 251 202 255 53 226 255 29 148 255 106 0 0 250 0 0 243 51 255 203 223 255 31 255 237 0 88 255 167 0 21 255 0 15 255 73 255 182 255 231 0 190 255 65 0 235 255 0 56 255 0 17 255 0 18 255 0 0 249 0 0 222 0 0 249 0 2 255 0 6 255 
0 0 168 0 0 156 0 0 204 0 0 216 0 0 200 0 0 204 0 0 243 0 0 248 0 149 255 135 255 119 255 208 0 242 255 12 0 69 255 0 17 255 0 199 255 218 255 37 255 172 0 208 255 47 0 70 255 0 27 255 49 255 205 255 203 0 255 213 0 21 255 233 0 57 255 0 25 255 0 18 255 0 10 255 0 0 254 0 0 245 0 0 246 0 0 201 
0 0 190 0 0 132 0 0 210 0 0 208 0 0 206 0 0 211 0 0 234 0 0 241 0 98 255 25 255 230 255 196 0 255 209 0 0 110 255 0 11 255 0 213 255 159 255 95 255 174 0 255 207 0 0 99 255 0 45 255 62 255 192 255 226 0 255 213 0 22 255 232 0 47 255 0 32 255 0 11 255 0 16 255 0 0 229 0 0 238 0 0 253 0 0 244 
0 0 191 0 0 162 0 0 218 0 0 222 0 0 217 0 0 206 0 0 240 0 2 255 0 36 255 0 169 255 255 211 0 255 202 0 101 255 153 0 114 255 0 145 255 124 255 131 255 166 0 255 188 0 0 166 255 0 58 255 137 255 117 255 184 0 255 206 0 24 255 230 0 57 255 0 7 255 0 12 255 0 38 255 0 10 255 0 18 255 0 5 255 0 0 254 
0 0 149 0 0 170 0 0 222 0 0 213 0 0 221 0 0 198 0 0 217 0 0 235 0 26 255 0 110 255 255 201 0 255 191 0 160 255 94 0 215 255 0 137 255 101 255 153 255 167 0 255 153 0 0 229 255 0 85 255 172 255 82 255 160 0 255 229 0 62 255 192 0 60 255 0 41 255 0 3 255 0 15 255 0 44 255 0 56 255 0 26 255 0 22 255 
0 0 198 0 0 166 0 0 200 0 0 202 0 0 206 0 0 192 0 0 229 0 0 244 0 0 250 0 53 255 226 255 28 255 230 0 255 236 0 100 255 154 0 132 255 90 255 164 255 161 0 255 187 0 114 255 141 0 149 255 255 235 0 255 109 0 255 198 0 40 255 215 0 42 255 0 11 255 0 137 255 84 255 171 27 255 228 0 128 255 0 48 255 0 30 255 
0 0 188 0 0 173 0 0 206 0 0 206 0 0 182 0 0 211 0 0 231 0 0 237 0 0 239 0 32 255 193 255 62 255 241 0 255 214 0 229 255 26 0 121 255 35 255 219 255 173 0 255 154 0 126 255 129 0 199 255 255 191 0 255 86 0 255 210 0 30 255 225 0 44 255 0 16 255 0 216 255 174 255 80 83 255 172 0 160 255 0 67 255 0 64 255 
0 0 206 0 0 180 0 0 215 0 0 227 0 0 208 0 0 171 0 0 235 0 0 217 0 0 223 0 0 217 0 255 255 224 255 31 255 204 0 255 220 0 0 215 255 2 255 253 255 174 0 255 175 0 224 255 30 11 255 243 255 169 0 255 117 0 255 215 0 18 255 237 0 49 255 0 22 255 223 255 32 255 203 0 18 255 237 0 115 255 0 73 255 0 30 255 
0 0 194 0 0 185 0 0 206 0 0 218 0 0 172 0 0 199 0 0 213 0 0 209 0 0 212 0 0 209 0 199 255 147 255 108 255 205 0 255 196 0 0 249 255 0 236 255 255 164 0 255 154 0 255 231 0 102 255 152 255 181 0 255 127 0 255 249 0 31 255 224 0 62 255 0 51 255 255 202 0 255 191 0 0 207 255 0 134 255 0 31 255 0 33 255 
0 0 216 0 0 192 0 0 230 0 0 211 0 0 231 0 0 219 0 0 226 0 0 241 0 0 212 0 0 223 0 122 255 47 255 208 255 209 0 255 211 0 170 255 85 47 255 208 255 179 0 255 138 0 255 158 0 255 210 0 255 129 0 255 132 0 255 247 0 0 239 255 0 123 255 40 255 215 255 146 0 255 167 0 0 151 255 0 59 255 0 58 255 0 22 255 
0 0 205 0 0 183 0 0 220 0 0 240 0 0 222 0 0 236 0 0 229 0 0 233 0 0 226 0 0 227 0 67 255 0 214 255 255 221 0 255 198 0 214 255 41 179 255 76 255 158 0 255 147 0 255 136 0 255 156 0 255 130 0 255 108 0 255 247 0 9 255 246 0 199 255 184 255 70 255 135 0 246 255 9 0 111 255 0 90 255 0 60 255 0 40 255 
0 0 242 0 0 227 0 18 255 0 0 251 0 0 223 0 0 206 0 0 240 0 0 254 0 0 236 0 0 242 0 37 255 0 146 255 255 252 0 255 234 0 255 214 0 255 184 0 255 158 0 255 168 0 255 138 0 255 161 0 255 120 0 255 131 0 255 138 0 181 255 73 242 255 13 255 154 0 255 183 0 73 255 181 0 87 255 0 28 255 0 30 255 0 0 251 
0 17 255 0 34 255 0 152 255 0 129 255 0 19 255 0 19 255 0 35 255 0 2 255 0 7 255 0 2 255 0 43 255 0 102 255 225 255 30 255 221 0 255 203 0 255 174 0 255 170 0 255 167 0 255 127 0 255 149 0 255 120 0 255 117 0 255 126 0 255 114 0 255 122 0 255 117 0 233 255 21 0 255 254 0 47 255 0 46 255 0 17 255 0 28 255 
0 129 255 0 253 255 255 239 0 255 239 0 186 255 69 49 255 205 0 71 255 0 19 255 0 28 255 0 0 239 0 52 255 0 65 255 214 255 41 255 255 0 255 201 0 255 170 0 255 146 0 255 169 0 255 106 0 255 85 0 255 64 0 255 66 0 255 108 0 255 128 0 255 91 0 255 117 0 24 255 230 0 135 255 0 52 255 0 0 249 0 46 255 0 39 255 
0 115 255 0 187 255 255 213 0 255 214 0 221 255 33 233 255 22 0 205 255 0 68 255 0 5 255 0 11 255 0 8 255 0 55 255 170 255 85 255 231 0 255 179 0 255 159 0 255 147 0 255 124 0 255 95 0 255 75 0 255 43 0 255 42 0 255 106 0 255 117 0 255 114 0 255 116 0 0 193 255 0 149 255 0 23 255 0 24 255 0 32 255 0 55 255 
0 24 255 0 67 255 0 198 255 83 255 171 255 216 0 255 239 0 255 246 0 134 255 120 0 49 255 0 22 255 0 57 255 0 67 255 181 255 73 255 243 0 255 178 0 255 151 0 255 124 0 255 109 0 255 42 0 255 47 0 255 7 0 254 0 0 255 57 0 255 68 0 255 102 0 255 146 0 0 146 255 0 102 255 0 32 255 0 8 255 0 37 255 0 43 255 
0 22 255 0 26 255 0 146 255 0 183 255 255 216 0 255 188 0 255 223 0 251 255 4 0 135 255 0 37 255 0 59 255 0 104 255 204 255 51 255 207 0 255 167 0 255 150 0 255 102 0 255 64 0 255 41 0 255 14 0 255 18 0 255 7 0 255 44 0 255 68 0 255 112 0 255 143 0 0 147 255 0 89 255 0 45 255 0 24 255 0 38 255 0 13 255 
0 0 217 0 0 239 0 67 255 0 96 255 9 255 245 197 255 57 255 173 0 255 198 0 230 255 24 52 255 202 0 67 255 0 171 255 255 180 0 255 207 0 255 164 0 255 120 0 255 93 0 255 73 0 255 20 0 254 0 0 211 0 0 255 1 0 255 10 0 255 50 0 255 85 0 255 180 0 0 130 255 0 81 255 0 49 255 0 22 255 0 42 255 0 79 255 
0 0 218 0 0 241 0 24 255 0 69 255 0 174 255 0 252 255 255 171 0 255 149 0 255 233 0 255 255 0 22 255 232 67 255 187 255 148 0 255 138 0 255 120 0 255 108 0 255 72 0 255 58 0 255 8 0 253 0 0 242 0 0 241 0 0 255 7 0 255 37 0 255 95 0 255 140 0 0 129 255 0 82 255 0 16 255 0 8 255 0 41 255 0 63 255 
0 0 217 0 0 203 0 9 255 0 38 255 0 85 255 0 137 255 173 255 81 255 205 0 255 156 0 255 196 0 255 164 0 255 157 0 255 101 0 255 111 0 255 126 0 255 113 0 255 13 0 255 15 0 229 0 0 207 0 0 202 0 0 215 0 0 255 18 0 255 36 0 255 96 0 255 170 0 0 146 255 0 91 255 0 35 255 0 30 255 0 24 255 0 17 255 
0 0 228 0 0 218 0 0 219 0 36 255 0 42 255 0 98 255 24 255 231 198 255 57 255 180 0 255 194 0 255 142 0 255 111 0 255 123 0 255 141 0 255 136 0 255 102 0 255 57 0 255 22 0 226 0 0 192 0 0 200 0 0 208 0 0 255 3 0 255 33 0 255 94 0 255 140 0 0 146 255 0 90 255 0 31 255 0 61 255 0 22 255 0 34 255 
0 0 213 0 0 210 0 0 237 0 0 241 0 19 255 0 24 255 0 113 255 0 206 255 255 186 0 255 213 0 255 181 0 255 137 0 255 111 0 255 125 0 255 128 0 255 109 0 255 63 0 255 60 0 225 0 0 227 0 0 193 0 0 226 0 0 255 15 0 255 25 0 255 93 0 255 186 0 0 148 255 0 98 255 0 47 255 0 0 255 0 40 255 0 31 255 
0 0 196 0 0 228 0 0 236 0 0 224 0 18 255 0 26 255 0 85 255 0 125 255 226 255 28 255 197 0 255 167 0 255 147 0 255 145 0 255 120 0 255 114 0 255 118 0 255 108 0 255 101 0 255 35 0 255 3 0 225 0 0 221 0 0 255 23 0 255 57 0 255 144 0 255 154 0 0 221 255 0 129 255 0 0 251 0 69 255 0 38 255 0 68 255 
