P3
32 24
255
0 0 127 0 0 182 0 10 255 0 64 255 0 18 255 0 0 228 0 46 255 0 64 255 0 9 255 0 0 228 0 14 255 0 18 255 0 0 248 0 18 255 0 57 255 0 64 255 0 68 255 0 18 255 0 25 255 0 111 255 0 189 255 85 255 169 0 221 255 0 203 255 0 70 255 0 18 255 0 0 233 0 0 228 0 0 172 0 0 182 0 0 254 0 18 255 
0 0 182 0 0 228 0 0 228 0 43 255 0 64 255 0 0 245 0 18 255 0 66 255 0 0 228 0 30 255 0 18 255 0 25 255 0 18 255 0 0 226 0 157 255 0 75 255 0 18 255 0 0 226 0 64 255 0 127 255 255 194 0 181 255 74 178 255 77 0 162 255 0 111 255 0 116 255 0 18 255 0 37 255 0 64 255 0 0 132 0 18 255 0 12 255 
0 0 213 0 0 182 0 3 255 0 0 182 0 0 255 0 64 255 0 27 255 0 0 182 0 25 255 0 0 228 0 23 255 0 0 228 0 44 255 0 18 255 38 255 216 85 255 169 0 153 255 0 64 255 0 72 255 85 255 169 255 91 0 255 10 0 243 0 0 255 194 0 0 173 255 0 111 255 0 32 255 0 18 255 0 0 246 0 0 136 0 0 224 0 18 255 
0 64 255 0 0 211 0 18 255 0 0 245 0 64 255 0 0 218 0 111 255 0 14 255 0 64 255 0 36 255 0 18 255 0 29 255 0 157 255 0 62 255 85 255 169 170 255 85 0 249 255 0 103 255 0 203 255 26 255 229 255 10 0 184 0 0 219 0 0 255 51 0 0 157 255 0 85 255 0 111 255 0 9 255 0 64 255 0 28 255 0 18 255 0 63 255 
0 34 255 0 0 228 0 81 255 0 18 255 0 9 255 0 18 255 0 0 246 0 0 228 0 0 255 0 0 228 0 59 255 0 18 255 0 19 255 0 64 255 12 255 242 131 255 123 255 197 0 224 255 31 0 211 255 255 194 0 246 0 0 255 10 0 204 0 0 219 0 0 100 255 155 0 249 255 0 96 255 0 111 255 0 35 255 0 64 255 0 65 255 0 64 255 
0 0 228 0 31 255 0 0 228 0 21 255 0 64 255 0 71 255 0 0 228 0 62 255 0 18 255 0 8 255 0 157 255 0 76 255 0 64 255 0 86 255 0 249 255 134 255 121 255 240 0 255 213 0 255 240 0 242 255 13 255 10 0 240 0 0 173 0 0 162 0 0 255 240 0 28 255 227 0 157 255 0 136 255 0 64 255 0 46 255 0 64 255 0 59 255 
0 40 255 0 18 255 0 55 255 0 64 255 0 0 216 0 0 228 0 31 255 0 64 255 0 8 255 0 0 228 0 111 255 0 111 255 0 149 255 39 255 215 98 255 157 131 255 123 231 255 23 224 255 31 255 144 0 255 10 0 255 4 0 219 0 0 155 0 0 219 0 0 255 42 0 131 255 123 0 152 255 0 157 255 0 0 253 0 64 255 0 25 255 0 0 228 
0 18 255 0 16 255 0 64 255 0 30 255 0 18 255 0 3 255 0 18 255 0 52 255 0 18 255 0 8 255 0 111 255 0 182 255 85 255 169 0 252 255 178 255 77 186 255 68 255 240 0 255 192 0 255 10 0 228 0 0 255 10 0 237 0 0 127 0 0 148 0 0 255 10 0 255 226 0 0 203 255 0 142 255 0 111 255 0 112 255 0 64 255 0 13 255 
0 13 255 0 0 228 0 30 255 0 64 255 0 0 246 0 18 255 0 0 232 0 18 255 0 34 255 0 111 255 0 255 255 131 255 123 152 255 103 178 255 77 220 255 34 255 194 0 255 222 0 255 148 0 239 0 0 255 102 0 228 0 0 219 0 0 161 0 0 173 0 0 218 0 0 255 148 0 73 255 182 0 203 255 0 74 255 0 64 255 0 35 255 0 0 228 
0 64 255 0 13 255 0 18 255 0 103 255 0 18 255 0 33 255 0 157 255 0 115 255 0 157 255 0 159 255 178 255 77 143 255 111 224 255 31 229 255 26 255 240 0 255 231 0 255 194 0 255 231 0 255 148 0 255 87 0 255 10 0 222 0 0 219 0 0 182 0 0 255 102 0 255 96 0 85 255 169 0 198 255 0 111 255 0 52 255 0 157 255 0 70 255 
0 132 255 0 111 255 0 140 255 0 157 255 0 127 255 0 203 255 0 202 255 0 249 255 12 255 242 178 255 77 220 255 34 255 194 0 255 131 0 255 148 0 255 192 0 178 255 77 255 231 0 131 255 123 255 239 0 131 255 123 255 192 0 224 255 31 255 6 0 255 148 0 255 56 0 224 255 31 189 255 65 85 255 169 0 157 255 0 111 255 0 66 255 0 111 255 
0 111 255 0 93 255 0 157 255 0 142 255 0 157 255 0 147 255 0 249 255 15 255 239 85 255 169 151 255 103 255 148 0 255 172 0 255 102 0 255 139 0 224 255 31 202 255 52 85 255 169 152 255 103 85 255 169 169 255 85 85 255 169 213 255 42 224 255 31 255 149 0 255 240 0 255 201 0 85 255 169 23 255 231 0 203 255 0 184 255 0 64 255 0 97 255 
0 144 255 0 157 255 0 241 255 39 255 215 3 255 251 0 249 255 67 255 188 131 255 123 205 255 50 255 102 0 255 58 0 255 102 0 255 123 0 255 240 0 177 255 77 131 255 123 100 255 155 85 255 169 67 255 188 39 255 215 45 255 209 0 249 255 90 255 165 85 255 169 179 255 76 85 255 169 122 255 132 39 255 215 0 210 255 0 157 255 0 112 255 0 64 255 
0 157 255 0 167 255 0 249 255 17 255 237 0 249 255 0 183 255 131 255 123 142 255 112 255 194 0 255 111 0 255 148 0 255 115 0 255 240 0 236 255 19 178 255 77 160 255 94 131 255 123 134 255 120 39 255 215 47 255 207 39 255 215 43 255 212 0 249 255 116 255 139 85 255 169 179 255 76 39 255 215 92 255 162 39 255 215 0 227 255 0 157 255 0 93 255 
0 167 255 39 255 215 0 252 255 0 249 255 3 255 251 0 249 255 179 255 76 255 194 0 255 128 0 255 148 0 255 189 0 224 255 31 229 255 26 178 255 77 127 255 128 178 255 77 100 255 155 39 255 215 143 255 111 39 255 215 0 255 255 39 255 215 43 255 212 85 255 169 16 255 238 0 249 255 45 255 209 39 255 215 0 231 255 0 203 255 0 190 255 0 111 255 
0 249 255 0 202 255 0 249 255 7 255 248 39 255 215 33 255 221 224 255 31 255 215 0 255 102 0 255 149 0 255 240 0 255 246 0 224 255 31 203 255 51 131 255 123 143 255 111 85 255 169 152 255 103 39 255 215 49 255 205 0 249 255 45 255 209 85 255 169 31 255 223 0 203 255 36 255 219 39 255 215 3 255 251 39 255 215 0 227 255 0 203 255 0 132 255 
0 244 255 0 203 255 0 248 255 0 249 255 30 255 224 39 255 215 160 255 94 224 255 31 255 128 0 255 148 0 255 195 0 255 148 0 247 255 7 224 255 31 177 255 77 178 255 77 143 255 111 131 255 123 134 255 120 39 255 215 43 255 212 0 249 255 34 255 221 131 255 123 16 255 238 0 249 255 30 255 224 85 255 169 35 255 219 39 255 215 0 241 255 0 203 255 
0 249 255 0 232 255 0 203 255 3 255 251 39 255 215 20 255 234 131 255 123 251 255 4 255 194 0 255 171 0 255 148 0 255 186 0 255 148 0 239 255 16 178 255 77 152 255 103 131 255 123 99 255 156 85 255 169 99 255 156 39 255 215 25 255 230 85 255 169 78 255 177 85 255 169 3 255 251 39 255 215 53 255 202 39 255 215 0 234 255 0 157 255 0 190 255 
0 198 255 0 111 255 0 184 255 0 249 255 0 252 255 131 255 123 103 255 151 131 255 123 252 255 2 255 240 0 255 174 0 255 148 0 255 235 0 255 240 0 152 255 103 178 255 77 98 255 157 85 255 169 81 255 174 131 255 123 106 255 149 85 255 169 151 255 103 131 255 123 102 255 152 39 255 215 30 255 224 0 249 255 0 179 255 0 203 255 0 190 255 0 249 255 
0 203 255 0 251 255 85 255 169 0 207 255 85 255 169 110 255 145 131 255 123 160 255 94 224 255 31 252 255 2 255 148 0 255 149 0 255 240 0 255 237 0 131 255 123 204 255 50 131 255 123 152 255 103 178 255 77 143 255 112 131 255 123 142 255 112 131 255 123 67 255 188 85 255 169 92 255 162 0 249 255 17 255 237 39 255 215 0 218 255 0 203 255 0 155 255 
0 120 255 0 249 255 0 255 255 0 249 255 54 255 200 39 255 215 111 255 144 131 255 123 160 255 94 224 255 31 255 204 0 255 194 0 255 206 0 224 255 31 196 255 59 224 255 31 178 255 76 178 255 77 197 255 58 131 255 123 142 255 113 131 255 123 84 255 170 39 255 215 83 255 172 0 249 255 46 255 209 0 203 255 4 255 251 0 249 255 0 227 255 0 203 255 
0 203 255 0 218 255 0 249 255 0 248 255 39 255 215 22 255 233 131 255 123 131 255 124 178 255 77 151 255 104 224 255 31 243 255 11 178 255 77 188 255 67 178 255 77 205 255 50 178 255 77 179 255 76 131 255 123 115 255 140 131 255 123 94 255 161 131 255 123 113 255 142 85 255 169 59 255 196 85 255 169 0 234 255 39 255 215 15 255 239 0 249 255 0 227 255 
0 187 255 0 203 255 0 223 255 0 249 255 23 255 231 0 249 255 108 255 147 131 255 123 59 255 196 131 255 123 170 255 84 85 255 169 180 255 75 131 255 123 207 255 47 224 255 31 114 255 141 131 255 123 114 255 141 131 255 123 131 255 123 85 255 169 43 255 211 85 255 169 56 255 198 39 255 215 63 255 192 39 255 215 0 239 255 39 255 215 0 205 255 0 157 255 
0 249 255 0 193 255 85 255 169 0 239 255 85 255 169 0 248 255 85 255 169 67 255 188 131 255 123 120 255 135 131 255 123 131 255 123 178 255 77 151 255 104 224 255 31 160 255 94 178 255 77 83 255 172 178 255 77 151 255 104 131 255 123 170 255 84 131 255 123 100 255 155 85 255 169 86 255 168 39 255 215 41 255 214 0 249 255 0 223 255 0 249 255 0 225 255 
