P3
32 24
255
0 0 169 0 0 127 0 0 226 0 0 186 0 0 230 0 0 179 0 20 255 0 47 255 18 255 236 222 255 33 209 255 46 41 255 214 0 29 255 0 0 246 91 255 163 249 255 5 255 224 0 12 255 243 0 41 255 0 47 255 64 255 191 255 249 0 183 255 72 0 221 255 0 20 255 0 3 255 0 2 255 0 0 233 0 1 255 0 0 210 0 0 225 0 0 244 
0 0 163 0 0 178 0 0 195 0 0 212 0 0 208 0 0 207 0 15 255 0 26 255 21 255 234 223 255 32 248 255 6 168 255 87 0 2 255 0 0 250 69 255 185 244 255 11 255 213 0 106 255 148 0 30 255 0 26 255 91 255 163 255 207 0 212 255 43 0 249 255 0 65 255 0 29 255 0 29 255 0 2 255 0 0 233 0 3 255 0 10 255 0 16 255 
0 0 174 0 0 162 0 0 216 0 0 229 0 0 211 0 0 216 0 1 255 0 5 255 0 164 255 155 255 100 255 185 0 255 246 0 0 82 255 0 26 255 0 213 255 239 255 15 255 149 0 229 255 25 0 80 255 0 39 255 66 255 188 255 180 0 255 189 0 38 255 216 0 70 255 0 33 255 0 26 255 0 18 255 0 11 255 0 1 255 0 0 255 0 0 211 
0 0 202 0 0 143 0 0 218 0 0 215 0 0 220 0 0 219 0 0 244 0 0 246 0 110 255 42 255 212 255 171 0 255 187 0 0 125 255 0 22 255 0 231 255 178 255 76 255 149 0 255 184 0 0 113 255 0 52 255 80 255 174 255 202 0 255 190 0 38 255 217 0 56 255 0 43 255 0 22 255 0 26 255 0 0 235 0 0 243 0 3 255 0 0 255 
0 0 204 0 0 167 0 0 225 0 0 231 0 0 228 0 0 219 0 0 250 0 13 255 0 49 255 0 182 255 255 188 0 255 178 0 120 255 135 0 127 255 0 158 255 142 255 112 255 141 0 255 166 0 0 178 255 0 70 255 156 255 98 255 160 0 255 183 0 41 255 213 0 69 255 0 18 255 0 19 255 0 47 255 0 19 255 0 24 255 0 17 255 0 8 255 
0 0 157 0 0 181 0 0 235 0 0 225 0 0 228 0 0 207 0 0 225 0 0 241 0 36 255 0 125 255 255 178 0 255 169 0 181 255 74 0 229 255 0 152 255 119 255 136 255 144 0 255 128 0 0 245 255 0 95 255 193 255 61 255 137 0 255 207 0 79 255 175 0 69 255 0 49 255 0 14 255 0 26 255 0 58 255 0 66 255 0 36 255 0 34 255 
0 0 208 0 0 172 0 0 213 0 0 211 0 0 217 0 0 198 0 0 238 0 0 255 0 4 255 0 64 255 247 255 8 255 209 0 255 213 0 118 255 136 0 146 255 108 255 147 255 140 0 255 164 0 132 255 122 0 165 255 255 213 0 255 85 0 255 177 0 57 255 197 0 54 255 0 19 255 0 148 255 102 255 152 43 255 211 0 143 255 0 57 255 0 42 255 
0 0 194 0 0 185 0 0 215 0 0 211 0 0 189 0 0 224 0 0 240 0 0 244 0 0 247 0 42 255 214 255 40 255 220 0 255 192 0 250 255 4 0 136 255 52 255 203 255 151 0 255 132 0 145 255 109 0 213 255 255 167 0 255 60 0 255 187 0 46 255 208 0 55 255 0 29 255 0 233 255 194 255 60 102 255 153 0 174 255 0 77 255 0 74 255 
0 0 217 0 0 192 0 0 228 0 0 233 0 0 218 0 0 175 0 0 245 0 0 225 0 0 236 0 0 225 16 255 239 243 255 11 255 182 0 255 198 0 0 231 255 17 255 237 255 151 0 255 153 0 244 255 10 27 255 228 255 148 0 255 94 0 255 194 0 33 255 221 0 61 255 0 33 255 243 255 11 255 181 0 33 255 221 0 127 255 0 86 255 0 41 255 
0 0 202 0 0 195 0 0 217 0 0 227 0 0 179 0 0 205 0 0 222 0 0 220 0 0 223 0 0 223 0 215 255 165 255 89 255 181 0 255 173 0 11 255 244 0 252 255 255 139 0 255 132 0 255 209 0 120 255 134 255 159 0 255 102 0 255 227 0 47 255 207 0 74 255 0 61 255 255 178 0 255 168 0 0 224 255 0 150 255 0 44 255 0 41 255 
0 0 226 0 0 201 0 0 242 0 0 222 0 0 245 0 0 229 0 0 239 0 0 250 0 0 222 0 0 232 0 134 255 65 255 190 255 187 0 255 190 0 189 255 66 64 255 191 255 158 0 255 116 0 255 138 0 255 189 0 255 107 0 255 109 0 255 226 0 1 255 254 0 137 255 57 255 197 255 123 0 255 144 0 0 163 255 0 69 255 0 71 255 0 32 255 
0 0 213 0 0 189 0 0 231 0 0 249 0 0 232 0 0 244 0 0 242 0 0 245 0 0 236 0 0 235 0 83 255 0 230 255 255 197 0 255 176 0 235 255 19 198 255 56 255 135 0 255 125 0 255 114 0 255 134 0 255 106 0 255 84 0 255 224 0 25 255 229 0 214 255 205 255 50 255 109 0 255 242 0 0 127 255 0 102 255 0 74 255 0 49 255 
0 0 255 0 0 237 0 28 255 0 6 255 0 0 232 0 0 215 0 0 253 0 7 255 0 0 247 0 0 251 0 51 255 0 160 255 255 231 0 255 212 0 255 194 0 255 162 0 255 135 0 255 145 0 255 115 0 255 138 0 255 95 0 255 109 0 255 115 0 201 255 53 255 246 0 255 131 0 255 159 0 91 255 163 0 97 255 0 40 255 0 40 255 0 2 255 
0 30 255 0 43 255 0 166 255 0 140 255 0 29 255 0 28 255 0 49 255 0 14 255 0 18 255 0 12 255 0 54 255 0 115 255 246 255 8 255 200 0 255 181 0 255 151 0 255 147 0 255 143 0 255 103 0 255 126 0 255 95 0 255 95 0 255 102 0 255 89 0 255 98 0 255 93 0 255 254 0 16 255 239 0 57 255 0 58 255 0 29 255 0 42 255 
0 146 255 15 255 239 255 216 0 255 214 0 207 255 48 67 255 188 0 84 255 0 32 255 0 41 255 0 0 252 0 63 255 0 80 255 234 255 21 255 234 0 255 180 0 255 148 0 255 121 0 255 145 0 255 83 0 255 63 0 255 41 0 255 42 0 255 86 0 255 104 0 255 67 0 255 92 0 40 255 215 0 148 255 0 63 255 0 4 255 0 56 255 0 50 255 
0 132 255 0 202 255 255 188 0 255 189 0 244 255 10 255 254 0 0 222 255 0 82 255 0 17 255 0 24 255 0 19 255 0 69 255 190 255 64 255 208 0 255 156 0 255 137 0 255 125 0 255 99 0 255 70 0 255 51 0 255 18 0 255 18 0 255 83 0 255 93 0 255 89 0 255 88 0 0 208 255 0 162 255 0 36 255 0 37 255 0 45 255 0 67 255 
0 37 255 0 78 255 0 212 255 103 255 151 255 192 0 255 215 0 255 225 0 154 255 100 0 60 255 0 33 255 0 70 255 0 81 255 202 255 53 255 220 0 255 156 0 255 127 0 255 100 0 255 86 0 255 20 0 255 21 0 236 0 0 226 0 0 255 32 0 255 43 0 255 79 0 255 123 0 0 161 255 0 116 255 0 42 255 0 18 255 0 48 255 0 57 255 
0 40 255 0 36 255 0 162 255 0 199 255 255 191 0 255 162 0 255 200 0 255 238 0 0 148 255 0 49 255 0 73 255 0 118 255 225 255 30 255 183 0 255 142 0 255 126 0 255 77 0 255 40 0 255 17 0 243 0 0 246 0 0 235 0 0 255 18 0 255 43 0 255 84 0 255 120 0 0 160 255 0 103 255 0 58 255 0 37 255 0 53 255 0 26 255 
0 0 230 0 0 251 0 78 255 0 112 255 28 255 227 219 255 35 255 150 0 255 175 0 252 255 2 71 255 184 0 78 255 0 186 255 255 158 0 255 184 0 255 140 0 255 97 0 255 69 0 255 48 0 248 0 0 226 0 0 185 0 0 232 0 0 236 0 0 255 21 0 255 56 0 255 155 0 0 143 255 0 97 255 0 58 255 0 34 255 0 49 255 0 92 255 
0 0 233 0 0 255 0 39 255 0 84 255 0 189 255 16 255 239 255 146 0 255 126 0 255 209 0 255 233 0 41 255 213 85 255 169 255 123 0 255 112 0 255 94 0 255 86 0 255 46 0 255 34 0 234 0 0 226 0 0 211 0 0 210 0 0 233 0 0 255 9 0 255 68 0 255 115 0 0 143 255 0 92 255 0 29 255 0 23 255 0 54 255 0 77 255 
0 0 228 0 0 209 0 20 255 0 50 255 0 100 255 0 152 255 194 255 60 255 179 0 255 133 0 255 170 0 255 141 0 255 134 0 255 75 0 255 84 0 255 103 0 255 88 0 240 0 0 243 0 0 204 0 0 182 0 0 171 0 0 183 0 0 247 0 0 255 9 0 255 70 0 255 143 0 0 157 255 0 103 255 0 43 255 0 43 255 0 33 255 0 27 255 
0 0 237 0 0 229 0 0 235 0 50 255 0 53 255 0 110 255 43 255 211 219 255 35 255 156 0 255 170 0 255 115 0 255 88 0 255 96 0 255 115 0 255 111 0 255 76 0 255 28 0 250 0 0 201 0 0 162 0 0 169 0 0 180 0 0 231 0 0 255 8 0 255 64 0 255 114 0 0 162 255 0 103 255 0 45 255 0 72 255 0 39 255 0 46 255 
0 0 222 0 0 223 0 0 251 0 0 251 0 30 255 0 35 255 0 126 255 0 223 255 255 162 0 255 188 0 255 157 0 255 110 0 255 85 0 255 99 0 255 102 0 255 83 0 255 37 0 255 32 0 200 0 0 199 0 0 167 0 0 197 0 0 245 0 0 251 0 0 255 67 0 255 158 0 0 162 255 0 112 255 0 60 255 0 9 255 0 51 255 0 45 255 
0 0 209 0 0 235 0 0 248 0 0 236 0 33 255 0 40 255 0 103 255 0 141 255 252 255 2 255 171 0 255 141 0 255 121 0 255 119 0 255 94 0 255 86 0 255 93 0 255 82 0 255 74 0 255 4 0 232 0 0 192 0 0 193 0 0 247 0 0 255 31 0 255 117 0 255 125 0 0 240 255 0 146 255 0 7 255 0 84 255 0 51 255 0 85 255 
