P3
32 24
255
0 0 206 0 0 222 0 0 213 0 0 207 0 0 142 0 0 138 0 0 154 0 0 154 0 0 140 0 0 140 0 0 150 0 0 141 0 0 141 0 0 150 0 0 141 0 0 141 0 0 150 0 0 155 0 0 159 0 0 150 0 0 145 0 0 159 0 0 155 0 0 145 0 0 154 0 0 149 0 0 154 0 0 148 0 0 153 0 0 153 0 0 147 0 0 164 
0 0 228 0 0 244 0 35 255 0 12 255 0 0 154 0 0 154 0 0 149 0 0 149 0 0 154 0 0 145 0 0 155 0 0 150 0 0 146 0 0 136 0 0 146 0 0 155 0 0 150 0 0 146 0 0 160 0 0 150 0 0 150 0 0 150 0 0 155 0 0 150 0 0 154 0 0 149 0 0 159 0 0 159 0 0 153 0 0 147 0 0 170 0 0 147 
0 0 237 0 0 251 0 241 255 0 255 255 0 0 154 0 0 164 0 0 164 0 0 164 0 0 159 0 0 155 0 0 146 0 0 155 0 0 155 0 0 142 0 0 155 0 0 155 0 0 155 0 0 146 0 0 151 0 0 155 0 0 150 0 0 146 0 0 155 0 0 155 0 0 150 0 0 149 0 0 164 0 0 169 0 0 169 0 0 169 0 0 158 0 0 153 
0 0 214 0 0 233 0 183 255 0 159 255 0 0 164 0 0 173 0 0 178 0 0 186 0 0 182 0 0 155 0 0 160 0 0 160 0 0 164 0 0 155 0 0 155 0 0 155 0 0 151 0 0 146 0 0 151 0 0 155 0 0 168 0 0 159 0 0 160 0 0 155 0 0 154 0 0 150 0 0 169 0 0 159 0 0 179 0 0 164 0 0 180 0 0 175 
0 0 185 0 0 196 0 0 251 0 33 255 0 0 173 0 0 173 0 0 212 0 0 204 0 0 190 0 0 181 0 0 168 0 0 168 0 0 168 0 0 164 0 0 160 0 0 156 0 0 151 0 0 155 0 0 160 0 0 164 0 0 164 0 0 164 0 0 164 0 0 164 0 0 159 0 0 150 0 0 154 0 0 164 0 0 179 0 0 164 0 0 174 0 0 180 
0 0 180 0 0 190 0 0 218 0 0 212 0 0 178 0 0 178 0 0 198 0 0 198 0 0 190 0 0 185 0 0 185 0 0 185 0 0 172 0 0 180 0 0 172 0 0 164 0 0 151 0 0 155 0 0 172 0 0 168 0 0 177 0 0 168 0 0 164 0 0 168 0 0 164 0 0 155 0 0 173 0 0 168 0 0 169 0 0 174 0 0 169 0 0 185 
0 0 174 0 0 169 0 0 188 0 0 192 0 0 173 0 0 182 0 0 198 0 0 224 0 0 206 0 0 189 0 0 188 0 0 197 0 0 184 0 0 176 0 0 176 0 0 172 0 0 172 0 0 168 0 0 188 0 0 188 0 0 189 0 0 194 0 0 181 0 0 172 0 0 168 0 0 168 0 0 168 0 0 164 0 0 173 0 0 174 0 0 169 0 0 174 
0 0 159 0 0 184 0 0 183 0 0 187 0 0 187 0 0 191 0 0 207 0 0 215 0 0 214 0 0 210 0 0 197 0 0 192 0 0 188 0 0 192 0 0 188 0 0 187 0 0 176 0 0 180 0 0 216 0 0 224 0 0 255 0 0 238 0 0 209 0 0 193 0 0 186 0 0 177 0 0 190 0 0 186 0 0 211 0 0 188 0 0 198 0 0 199 
0 0 159 0 0 169 0 0 187 0 0 182 0 0 199 0 0 212 0 0 242 0 2 255 0 8 255 0 36 255 0 73 255 0 16 255 0 0 192 0 0 196 0 0 203 0 0 203 0 0 195 0 0 203 0 20 255 0 54 255 0 103 255 0 94 255 0 0 236 0 0 234 0 0 198 0 0 217 0 0 238 0 0 247 0 41 255 0 40 255 0 19 255 0 22 255 
0 0 169 0 0 169 0 0 169 0 0 182 0 0 212 0 0 221 0 6 255 0 14 255 0 47 255 0 157 255 0 118 255 0 9 255 0 0 200 0 0 211 0 0 240 0 0 207 0 0 219 0 0 222 0 1 255 0 71 255 0 175 255 0 115 255 0 1 255 0 0 230 0 0 232 0 0 221 0 0 238 0 4 255 0 83 255 0 87 255 0 71 255 0 33 255 
0 0 164 0 0 174 0 0 183 0 0 200 0 0 238 0 0 242 0 71 255 0 78 255 0 207 255 32 255 223 0 0 187 0 0 180 0 0 195 0 0 235 0 147 255 0 130 255 0 144 255 0 154 255 0 0 253 0 1 255 114 255 140 0 163 255 0 0 224 0 0 213 0 0 220 0 0 207 0 0 251 0 54 255 0 200 255 10 255 245 0 108 255 0 100 255 
0 0 169 0 0 164 0 0 187 0 0 200 0 0 229 0 8 255 0 84 255 0 97 255 0 195 255 20 255 234 0 0 211 0 0 183 0 0 191 0 80 255 27 255 227 0 214 255 5 255 249 0 220 255 0 0 253 0 0 207 0 0 255 0 0 235 0 0 180 0 0 184 0 0 249 0 0 245 0 79 255 0 161 255 169 255 85 112 255 142 0 147 255 0 97 255 
0 0 143 0 0 154 0 0 164 0 0 164 0 0 212 0 0 228 0 93 255 0 119 255 0 235 255 1 255 254 0 0 172 0 0 180 0 0 249 0 107 255 255 194 0 213 255 41 255 128 0 255 123 0 0 0 225 0 0 191 0 0 148 0 0 156 0 0 148 0 0 160 0 169 255 0 138 255 31 255 224 58 255 197 124 255 131 49 255 206 0 108 255 0 101 255 
0 0 144 0 0 143 0 0 155 0 0 155 0 0 195 0 0 232 0 53 255 0 140 255 0 244 255 0 225 255 0 0 188 0 0 164 0 0 219 41 255 214 255 49 0 255 184 0 238 0 0 255 114 0 0 44 255 0 0 180 0 0 148 0 0 147 0 0 160 0 0 164 2 255 253 0 209 255 116 255 139 143 255 111 255 176 0 19 255 235 0 123 255 0 78 255 
0 0 143 0 0 139 0 0 164 0 0 169 0 0 186 0 0 199 0 50 255 0 103 255 26 255 229 40 255 214 0 0 180 0 0 172 0 27 255 0 145 255 255 214 0 191 255 64 255 20 0 255 83 0 0 0 199 0 0 179 0 0 152 0 0 140 0 0 151 0 0 160 66 255 188 0 243 255 183 0 0 127 0 0 255 47 0 187 255 68 0 112 255 0 104 255 
0 0 149 0 0 143 0 0 169 0 0 159 0 0 182 0 0 212 0 22 255 0 118 255 0 235 255 0 193 255 0 0 172 0 0 168 0 0 207 0 165 255 112 255 143 125 255 130 255 154 0 163 255 92 0 0 238 0 0 156 0 0 136 0 0 131 0 0 135 0 0 197 0 250 255 7 255 248 250 0 0 194 0 0 217 0 0 84 255 171 0 134 255 0 81 255 
0 0 143 0 0 148 0 0 159 0 0 159 0 0 168 0 0 173 0 0 251 0 34 255 0 109 255 0 106 255 0 0 184 0 0 180 0 0 200 0 0 243 0 178 255 0 204 255 83 255 171 46 255 208 0 0 188 0 0 184 0 0 147 0 0 152 0 0 164 0 0 181 0 201 255 0 199 255 203 255 52 255 190 0 186 255 68 36 255 219 0 104 255 0 85 255 
0 0 154 0 0 143 0 0 154 0 0 154 0 0 178 0 0 168 0 0 189 0 0 230 0 10 255 0 14 255 0 0 212 0 0 192 0 0 196 0 30 255 0 130 255 0 187 255 8 255 247 0 183 255 0 0 192 0 0 172 0 0 147 0 0 156 0 0 172 0 6 255 0 207 255 9 255 245 167 255 87 255 164 0 187 255 68 0 215 255 0 119 255 0 92 255 
0 0 136 0 0 137 0 0 144 0 0 154 0 0 150 0 0 159 0 0 168 0 0 173 0 0 177 0 0 164 0 0 188 0 0 197 0 0 244 0 14 255 0 97 255 0 118 255 0 130 255 0 97 255 0 0 188 0 0 184 0 0 147 0 0 151 0 0 180 0 0 223 0 212 255 24 255 230 255 162 0 255 152 0 29 255 226 0 205 255 0 160 255 0 158 255 
0 0 153 0 0 142 0 0 149 0 0 144 0 0 164 0 0 155 0 0 168 0 0 172 0 0 168 0 0 160 0 0 168 0 0 172 0 0 217 0 3 255 0 41 255 0 66 255 0 40 255 0 18 255 0 0 205 0 0 200 0 0 185 0 0 151 0 0 201 0 52 255 0 190 255 111 255 143 255 178 0 255 173 0 52 255 202 0 187 255 0 153 255 0 154 255 
0 0 135 0 0 142 0 0 143 0 0 139 0 0 154 0 0 154 0 0 150 0 0 164 0 0 159 0 0 168 0 0 155 0 0 155 0 0 176 0 0 172 0 0 204 0 0 201 0 0 212 0 0 209 0 0 201 0 0 193 0 0 223 0 0 216 0 0 228 0 0 241 0 175 255 1 255 253 180 255 74 152 255 103 0 237 255 0 223 255 0 154 255 0 151 255 
0 0 135 0 0 136 0 0 148 0 0 143 0 0 149 0 0 154 0 0 155 0 0 168 0 0 164 0 0 168 0 0 164 0 0 164 0 0 177 0 0 172 0 0 172 0 0 180 0 0 181 0 0 197 0 0 197 0 0 197 0 0 224 0 0 228 0 0 245 0 6 255 0 142 255 7 255 248 65 255 190 72 255 183 0 248 255 0 201 255 0 155 255 0 154 255 
0 0 127 0 0 128 0 0 136 0 0 133 0 0 138 0 0 144 0 0 144 0 0 155 0 0 145 0 0 155 0 0 146 0 0 155 0 0 164 0 0 164 0 0 159 0 0 168 0 0 160 0 0 168 0 0 160 0 0 164 0 0 186 0 0 195 0 0 255 0 12 255 0 101 255 0 108 255 0 155 255 0 159 255 0 177 255 0 174 255 0 168 255 0 190 255 
0 0 127 0 0 134 0 0 142 0 0 142 0 0 133 0 0 138 0 0 154 0 0 154 0 0 155 0 0 145 0 0 160 0 0 159 0 0 160 0 0 164 0 0 168 0 0 164 0 0 168 0 0 159 0 0 164 0 0 168 0 0 173 0 0 177 0 0 209 0 0 245 0 26 255 0 78 255 0 112 255 0 134 255 0 171 255 0 171 255 0 222 255 1 255 254 
