P3
32 24
255
0 0 176 0 0 129 0 0 216 0 0 129 0 0 218 0 0 129 0 7 255 0 10 255 3 255 251 163 255 92 184 255 70 0 214 255 0 15 255 0 0 197 73 255 181 231 255 23 255 255 0 0 214 255 0 28 255 0 10 255 46 255 208 231 255 23 160 255 94 0 146 255 0 0 255 0 0 197 0 0 248 0 0 197 0 0 245 0 0 197 0 0 217 0 0 197 
0 0 129 0 0 170 0 0 129 0 0 194 0 0 197 0 0 197 0 10 255 0 8 255 0 214 255 196 255 58 163 255 92 147 255 108 0 0 197 0 0 238 27 255 228 219 255 35 231 255 23 86 255 169 0 10 255 0 15 255 27 255 228 255 238 0 163 255 92 0 238 255 0 10 255 0 15 255 0 10 255 0 0 248 0 0 197 0 0 245 0 0 197 0 5 255 
0 0 181 0 0 129 0 0 206 0 0 197 0 0 201 0 0 197 0 0 238 0 0 197 0 155 255 95 255 160 255 205 0 231 255 23 0 65 255 0 10 255 0 202 255 163 255 92 255 171 0 163 255 92 0 65 255 0 10 255 49 255 206 255 211 0 255 219 0 27 255 228 0 55 255 0 10 255 0 15 255 0 10 255 0 0 246 0 0 197 0 0 245 0 0 197 
0 0 197 0 0 127 0 0 197 0 0 206 0 0 197 0 0 209 0 0 197 0 0 238 0 78 255 26 255 229 255 211 0 255 216 0 0 78 255 0 9 255 0 214 255 156 255 98 255 211 0 255 205 0 0 78 255 0 40 255 27 255 228 255 234 0 255 211 0 24 255 230 0 10 255 0 28 255 0 10 255 0 15 255 0 0 197 0 0 231 0 0 197 0 0 245 
0 0 200 0 0 129 0 0 214 0 0 197 0 0 217 0 0 197 0 0 239 0 10 255 0 34 255 0 146 255 255 208 0 255 211 0 100 255 155 0 78 255 0 138 255 95 255 160 255 164 0 255 211 0 0 158 255 0 10 255 134 255 121 255 211 0 255 213 0 0 214 255 0 53 255 0 10 255 0 8 255 0 10 255 0 7 255 0 10 255 0 0 254 0 0 197 
0 0 129 0 0 174 0 0 197 0 0 209 0 0 197 0 0 198 0 0 197 0 0 233 0 10 255 0 106 255 255 211 0 255 200 0 163 255 92 0 217 255 0 146 255 100 255 154 255 211 0 255 153 0 0 214 255 0 80 255 163 255 92 255 160 0 231 255 23 63 255 191 0 10 255 0 34 255 0 10 255 0 15 255 0 10 255 0 51 255 0 10 255 0 21 255 
0 0 212 0 0 129 0 0 195 0 0 197 0 0 206 0 0 197 0 0 228 0 0 197 0 0 247 0 10 255 219 255 35 231 255 23 255 244 0 95 255 160 0 128 255 95 255 160 255 160 0 255 211 0 111 255 143 0 146 255 255 244 0 255 143 0 255 208 0 27 255 228 0 40 255 0 10 255 0 130 255 95 255 160 28 255 226 0 78 255 0 44 255 0 10 255 
0 0 197 0 0 168 0 0 197 0 0 203 0 0 129 0 0 214 0 0 197 0 0 235 0 0 197 0 27 255 163 255 92 255 248 0 255 211 0 222 255 32 0 78 255 36 255 218 255 211 0 255 157 0 95 255 160 0 191 255 255 211 0 255 87 0 255 211 0 31 255 224 0 10 255 0 15 255 0 214 255 171 255 84 27 255 228 0 165 255 0 10 255 0 59 255 
0 0 220 0 0 129 0 0 211 0 0 197 0 0 208 0 0 129 0 0 235 0 0 197 0 0 224 0 0 197 2 255 253 163 255 92 255 203 0 231 255 23 0 218 255 0 214 255 255 174 0 255 211 0 218 255 37 0 214 255 255 167 0 255 143 0 255 224 0 0 214 255 0 46 255 0 10 255 217 255 37 255 211 0 19 255 236 0 78 255 0 71 255 0 10 255 
0 0 197 0 0 187 0 0 197 0 0 219 0 0 129 0 0 196 0 0 197 0 0 213 0 0 197 0 0 206 0 146 255 144 255 111 255 211 0 255 195 0 0 214 255 0 240 255 255 211 0 255 153 0 231 255 23 101 255 154 255 211 0 255 128 0 231 255 23 32 255 222 0 10 255 0 46 255 255 211 0 255 187 0 0 214 255 0 138 255 0 10 255 0 29 255 
0 0 228 0 0 197 0 0 232 0 0 197 0 0 233 0 0 197 0 0 230 0 0 197 0 0 213 0 0 197 0 116 255 27 255 228 255 208 0 255 211 0 165 255 90 27 255 228 255 180 0 255 143 0 255 157 0 255 211 0 255 132 0 255 143 0 255 255 0 0 214 255 0 118 255 27 255 228 255 156 0 255 211 0 0 142 255 0 10 255 0 57 255 0 10 255 
0 0 197 0 0 181 0 0 197 0 0 239 0 0 197 0 0 233 0 0 197 0 0 236 0 0 197 0 0 224 0 10 255 0 218 255 255 211 0 255 198 0 163 255 92 175 255 80 255 211 0 255 150 0 255 143 0 255 157 0 255 143 0 255 111 0 231 255 23 11 255 243 0 146 255 179 255 76 255 143 0 241 255 14 0 78 255 0 97 255 0 10 255 0 36 255 
0 1 255 0 0 197 0 15 255 0 0 197 0 0 221 0 0 197 0 0 241 0 0 197 0 0 236 0 0 197 0 33 255 0 146 255 249 255 5 231 255 23 255 211 0 255 211 0 255 160 0 255 211 0 255 140 0 255 211 0 255 122 0 255 143 0 255 139 0 163 255 92 235 255 19 255 211 0 255 191 0 27 255 228 0 81 255 0 10 255 0 29 255 0 0 197 
0 10 255 0 28 255 0 146 255 0 134 255 0 10 255 0 15 255 0 10 255 0 4 255 0 10 255 0 0 254 0 10 255 0 99 255 231 255 23 255 221 0 255 211 0 255 173 0 255 211 0 255 167 0 255 143 0 255 150 0 255 143 0 255 118 0 255 143 0 255 113 0 255 143 0 255 120 0 231 255 23 2 255 253 0 10 255 0 56 255 0 10 255 0 21 255 
0 138 255 0 214 255 255 234 0 231 255 23 181 255 74 27 255 228 0 68 255 0 10 255 0 27 255 0 0 197 0 50 255 0 10 255 207 255 47 231 255 23 255 201 0 255 211 0 255 146 0 255 211 0 255 109 0 255 143 0 255 70 0 255 75 0 255 111 0 255 143 0 255 93 0 255 143 0 26 255 229 0 78 255 0 48 255 0 0 197 0 43 255 0 10 255 
0 78 255 0 192 255 255 211 0 255 207 0 231 255 23 239 255 16 0 214 255 0 68 255 0 10 255 0 10 255 0 10 255 0 55 255 163 255 92 255 229 0 255 211 0 255 160 0 255 143 0 255 126 0 255 143 0 255 79 0 255 75 0 255 49 0 255 143 0 255 118 0 255 143 0 255 116 0 0 146 255 0 155 255 0 10 255 0 35 255 0 10 255 0 65 255 
0 35 255 0 10 255 0 202 255 95 255 160 255 213 0 231 255 23 255 244 0 95 255 160 0 45 255 0 10 255 0 56 255 0 10 255 176 255 78 231 255 23 255 177 0 255 143 0 255 126 0 255 143 0 255 44 0 255 75 0 255 13 0 255 6 0 255 60 0 255 75 0 255 104 0 255 143 0 0 138 255 0 78 255 0 28 255 0 10 255 0 36 255 0 10 255 
0 10 255 0 35 255 0 146 255 0 189 255 255 211 0 255 184 0 231 255 23 255 255 0 0 146 255 0 33 255 0 10 255 0 101 255 163 255 92 255 206 0 255 211 0 255 150 0 255 143 0 255 70 0 255 75 0 255 18 0 255 75 0 255 13 0 255 75 0 255 70 0 255 143 0 255 145 0 0 146 255 0 99 255 0 10 255 0 35 255 0 10 255 0 29 255 
0 0 233 0 0 197 0 75 255 0 78 255 10 255 245 163 255 92 255 171 0 255 211 0 235 255 19 27 255 228 0 62 255 0 146 255 255 181 0 255 211 0 255 164 0 255 143 0 255 96 0 255 75 0 255 23 0 255 6 0 220 0 0 255 6 0 255 11 0 255 75 0 255 83 0 255 211 0 0 125 255 0 78 255 0 43 255 0 10 255 0 37 255 0 78 255 
0 0 197 0 0 248 0 10 255 0 75 255 0 146 255 0 253 255 255 211 0 255 149 0 231 255 23 255 252 0 27 255 228 67 255 187 255 143 0 255 139 0 255 143 0 255 111 0 255 75 0 255 65 0 255 6 0 255 2 0 255 6 0 235 0 0 255 6 0 255 38 0 255 143 0 255 141 0 0 78 255 0 89 255 0 10 255 0 21 255 0 10 255 0 76 255 
0 0 231 0 0 197 0 21 255 0 10 255 0 94 255 0 146 255 170 255 84 255 211 0 255 156 0 255 211 0 255 164 0 255 211 0 255 103 0 255 143 0 255 128 0 255 143 0 255 17 0 255 75 0 237 0 0 255 6 0 206 0 0 255 6 0 255 21 0 255 75 0 255 96 0 255 211 0 0 151 255 0 78 255 0 29 255 0 10 255 0 21 255 0 10 255 
0 0 197 0 0 231 0 0 197 0 50 255 0 10 255 0 102 255 27 255 228 206 255 49 255 211 0 255 194 0 255 143 0 255 113 0 255 143 0 255 142 0 255 143 0 255 103 0 255 75 0 255 17 0 255 6 0 188 0 0 194 0 0 206 0 0 255 6 0 255 38 0 255 143 0 255 140 0 0 146 255 0 100 255 0 10 255 0 67 255 0 10 255 0 46 255 
0 0 227 0 0 197 0 0 246 0 0 197 0 29 255 0 10 255 0 121 255 0 214 255 255 184 0 255 211 0 255 179 0 255 143 0 255 111 0 255 143 0 255 127 0 255 143 0 255 66 0 255 75 0 232 0 0 255 6 0 203 0 0 255 6 0 255 14 0 255 75 0 255 93 0 255 211 0 0 156 255 0 78 255 0 60 255 0 0 197 0 38 255 0 10 255 
0 0 197 0 0 236 0 0 197 0 0 239 0 10 255 0 35 255 0 78 255 0 134 255 231 255 23 255 196 0 255 211 0 255 145 0 255 143 0 255 122 0 255 143 0 255 120 0 255 143 0 255 93 0 255 75 0 254 0 0 255 6 0 211 0 0 255 6 0 255 43 0 255 143 0 255 152 0 0 214 255 0 138 255 0 10 255 0 78 255 0 10 255 0 81 255 
